<svg width="690" height="1468" viewBox="0 0 690 1468" class="keymap" xmlns="http://www.w3.org/2000/svg" xmlns:xlink="http://www.w3.org/1999/xlink">
<style>/* font and background color specifications */
svg.keymap {
  font-family: SFMono-Regular,Consolas,Liberation Mono,Menlo,monospace;
  font-size: 14px;
  font-kerning: normal;
  text-rendering: optimizeLegibility;
  fill: #24292e;
}

/* default key styling */
rect.key {
  fill: #f6f8fa;
  stroke: #c9cccf;
  stroke-width: 1;
}

/* default key side styling, only used is draw_key_sides is set */
rect.side {
  filter: brightness(90%);
}

/* color accent for combo boxes */
rect.combo, rect.combo-separate {
  fill: #cdf;
}

/* color accent for held keys */
rect.held, rect.combo.held {
  fill: #fdd;
}

/* color accent for ghost (optional) keys */
rect.ghost, rect.combo.ghost {
  display: none;
}

text {
  text-anchor: middle;
  dominant-baseline: middle;
}

/* styling for layer labels */
text.label {
  font-weight: bold;
  text-anchor: start;
  stroke: white;
  stroke-width: 2;
  paint-order: stroke;
}

/* styling for combo tap, and key hold/shifted label text */
text.combo, text.hold, text.shifted {
  font-size: 11px;
}

text.hold {
  text-anchor: middle;
  dominant-baseline: auto;
}

text.shifted {
  text-anchor: middle;
  dominant-baseline: hanging;
}

/* styling for hold/shifted label text in combo box */
text.combo.hold, text.combo.shifted {
  font-size: 8px;
}

/* lighter symbol for transparent keys */
text.trans {
  fill: #7b7e81;
}

/* styling for combo dendrons */
path.combo {
  stroke-width: 1;
  stroke: gray;
  fill: none;
}

/* Start Tabler Icons Cleanup */
/* cannot use height/width with glyphs */
.icon-tabler > path {
  fill: inherit;
  stroke: inherit;
  stroke-width: 2;
}
/* hide tabler's default box */
.icon-tabler > path[stroke="none"][fill="none"] {
  visibility: hidden;
}
/* End Tabler Icons Cleanup */</style>
<g transform="translate(30, 0)" class="layer-VERTICAL">
<text x="0" y="28" class="label">VERTICAL:</text>
<g transform="translate(0, 56)">
<g transform="translate(30, 56)" class="key keypos-0">
<rect rx="6" ry="6" x="-28" y="-26" width="56" height="52" class="key"/>
<text x="0" y="0" class="key tap">b</text>
</g>
<g transform="translate(90, 28)" class="key trans keypos-1">
<rect rx="6" ry="6" x="-28" y="-26" width="56" height="52" class="key trans"/>
</g>
<g transform="translate(150, 28)" class="key trans keypos-2">
<rect rx="6" ry="6" x="-28" y="-26" width="56" height="52" class="key trans"/>
</g>
<g transform="translate(210, 28)" class="key trans keypos-3">
<rect rx="6" ry="6" x="-28" y="-26" width="56" height="52" class="key trans"/>
</g>
<g transform="translate(270, 56)" class="key ghost keypos-4">
<rect rx="6" ry="6" x="-28" y="-26" width="56" height="52" class="key ghost"/>
</g>
<g transform="translate(360, 56)" class="key ghost keypos-5">
<rect rx="6" ry="6" x="-28" y="-26" width="56" height="52" class="key ghost"/>
</g>
<g transform="translate(420, 28)" class="key trans keypos-6">
<rect rx="6" ry="6" x="-28" y="-26" width="56" height="52" class="key trans"/>
</g>
<g transform="translate(480, 28)" class="key trans keypos-7">
<rect rx="6" ry="6" x="-28" y="-26" width="56" height="52" class="key trans"/>
</g>
<g transform="translate(540, 28)" class="key trans keypos-8">
<rect rx="6" ry="6" x="-28" y="-26" width="56" height="52" class="key trans"/>
</g>
<g transform="translate(600, 56)" class="key trans keypos-9">
<rect rx="6" ry="6" x="-28" y="-26" width="56" height="52" class="key trans"/>
</g>
<g transform="translate(30, 112)" class="key trans keypos-10">
<rect rx="6" ry="6" x="-28" y="-26" width="56" height="52" class="key trans"/>
</g>
<g transform="translate(90, 84)" class="key trans keypos-11">
<rect rx="6" ry="6" x="-28" y="-26" width="56" height="52" class="key trans"/>
</g>
<g transform="translate(150, 84)" class="key trans keypos-12">
<rect rx="6" ry="6" x="-28" y="-26" width="56" height="52" class="key trans"/>
</g>
<g transform="translate(210, 84)" class="key trans keypos-13">
<rect rx="6" ry="6" x="-28" y="-26" width="56" height="52" class="key trans"/>
</g>
<g transform="translate(270, 112)" class="key ghost keypos-14">
<rect rx="6" ry="6" x="-28" y="-26" width="56" height="52" class="key ghost"/>
</g>
<g transform="translate(360, 112)" class="key ghost keypos-15">
<rect rx="6" ry="6" x="-28" y="-26" width="56" height="52" class="key ghost"/>
</g>
<g transform="translate(420, 84)" class="key trans keypos-16">
<rect rx="6" ry="6" x="-28" y="-26" width="56" height="52" class="key trans"/>
</g>
<g transform="translate(480, 84)" class="key trans keypos-17">
<rect rx="6" ry="6" x="-28" y="-26" width="56" height="52" class="key trans"/>
</g>
<g transform="translate(540, 84)" class="key trans keypos-18">
<rect rx="6" ry="6" x="-28" y="-26" width="56" height="52" class="key trans"/>
</g>
<g transform="translate(600, 112)" class="key trans keypos-19">
<rect rx="6" ry="6" x="-28" y="-26" width="56" height="52" class="key trans"/>
</g>
<g transform="translate(90, 140)" class="key ghost keypos-20">
<rect rx="6" ry="6" x="-28" y="-26" width="56" height="52" class="key ghost"/>
</g>
<g transform="translate(150, 140)" class="key ghost keypos-21">
<rect rx="6" ry="6" x="-28" y="-26" width="56" height="52" class="key ghost"/>
</g>
<g transform="translate(210, 140)" class="key ghost keypos-22">
<rect rx="6" ry="6" x="-28" y="-26" width="56" height="52" class="key ghost"/>
</g>
<g transform="translate(420, 140)" class="key ghost keypos-23">
<rect rx="6" ry="6" x="-28" y="-26" width="56" height="52" class="key ghost"/>
</g>
<g transform="translate(480, 140)" class="key ghost keypos-24">
<rect rx="6" ry="6" x="-28" y="-26" width="56" height="52" class="key ghost"/>
</g>
<g transform="translate(540, 140)" class="key ghost keypos-25">
<rect rx="6" ry="6" x="-28" y="-26" width="56" height="52" class="key ghost"/>
</g>
<g transform="translate(210, 196)" class="key trans keypos-26">
<rect rx="6" ry="6" x="-28" y="-26" width="56" height="52" class="key trans"/>
</g>
<g transform="translate(270, 196)" class="key trans keypos-27">
<rect rx="6" ry="6" x="-28" y="-26" width="56" height="52" class="key trans"/>
</g>
<g transform="translate(360, 196)" class="key trans keypos-28">
<rect rx="6" ry="6" x="-28" y="-26" width="56" height="52" class="key trans"/>
</g>
<g transform="translate(420, 196)" class="key trans keypos-29">
<rect rx="6" ry="6" x="-28" y="-26" width="56" height="52" class="key trans"/>
</g>
<g class="combo combopos-0">
<rect rx="6" ry="6" x="16" y="71" width="28" height="26" class="combo"/>
<text x="30" y="84" class="combo tap">&lt;</text>
</g>
<g class="combo combopos-1">
<rect rx="6" ry="6" x="76" y="43" width="28" height="26" class="combo"/>
<text x="90" y="56" class="combo tap">[</text>
</g>
<g class="combo combopos-2">
<rect rx="6" ry="6" x="136" y="43" width="28" height="26" class="combo"/>
<text x="150" y="56" class="combo tap">{</text>
</g>
<g class="combo combopos-3">
<rect rx="6" ry="6" x="196" y="43" width="28" height="26" class="combo"/>
<text x="210" y="56" class="combo tap">(</text>
</g>
<g class="combo combopos-4">
<rect rx="6" ry="6" x="406" y="43" width="28" height="26" class="combo"/>
<text x="420" y="56" class="combo tap">)</text>
</g>
<g class="combo combopos-5">
<rect rx="6" ry="6" x="466" y="43" width="28" height="26" class="combo"/>
<text x="480" y="56" class="combo tap">}</text>
</g>
<g class="combo combopos-6">
<rect rx="6" ry="6" x="526" y="43" width="28" height="26" class="combo"/>
<text x="540" y="56" class="combo tap">]</text>
</g>
<g class="combo combopos-7">
<rect rx="6" ry="6" x="586" y="71" width="28" height="26" class="combo"/>
<text x="600" y="84" class="combo tap">&gt;</text>
</g>
</g>
</g>
<g transform="translate(30, 280)" class="layer-MAIN">
<text x="0" y="28" class="label">MAIN:</text>
<g transform="translate(0, 68)">
<g transform="translate(30, 56)" class="key keypos-0">
<rect rx="6" ry="6" x="-28" y="-26" width="56" height="52" class="key"/>
<text x="0" y="0" class="key tap">R</text>
<text x="0" y="24" class="key hold">Gui</text>
</g>
<g transform="translate(90, 28)" class="key keypos-1">
<rect rx="6" ry="6" x="-28" y="-26" width="56" height="52" class="key"/>
<text x="0" y="0" class="key tap">S</text>
<text x="0" y="24" class="key hold">Alt</text>
</g>
<g transform="translate(150, 28)" class="key keypos-2">
<rect rx="6" ry="6" x="-28" y="-26" width="56" height="52" class="key"/>
<text x="0" y="0" class="key tap">T</text>
<text x="0" y="24" class="key hold">Shift</text>
</g>
<g transform="translate(210, 28)" class="key keypos-3">
<rect rx="6" ry="6" x="-28" y="-26" width="56" height="52" class="key"/>
<text x="0" y="0" class="key tap">H</text>
<text x="0" y="24" class="key hold">Ctrl</text>
</g>
<g transform="translate(270, 56)" class="key ghost keypos-4">
<rect rx="6" ry="6" x="-28" y="-26" width="56" height="52" class="key ghost"/>
</g>
<g transform="translate(360, 56)" class="key ghost keypos-5">
<rect rx="6" ry="6" x="-28" y="-26" width="56" height="52" class="key ghost"/>
</g>
<g transform="translate(420, 28)" class="key keypos-6">
<rect rx="6" ry="6" x="-28" y="-26" width="56" height="52" class="key"/>
<text x="0" y="0" class="key tap">N</text>
<text x="0" y="24" class="key hold">Ctrl</text>
</g>
<g transform="translate(480, 28)" class="key keypos-7">
<rect rx="6" ry="6" x="-28" y="-26" width="56" height="52" class="key"/>
<text x="0" y="0" class="key tap">A</text>
<text x="0" y="24" class="key hold">Shift</text>
</g>
<g transform="translate(540, 28)" class="key keypos-8">
<rect rx="6" ry="6" x="-28" y="-26" width="56" height="52" class="key"/>
<text x="0" y="0" class="key tap">I</text>
<text x="0" y="24" class="key hold">Alt</text>
</g>
<g transform="translate(600, 56)" class="key keypos-9">
<rect rx="6" ry="6" x="-28" y="-26" width="56" height="52" class="key"/>
<text x="0" y="0" class="key tap">O</text>
<text x="0" y="24" class="key hold">Gui</text>
</g>
<g transform="translate(30, 112)" class="key keypos-10">
<rect rx="6" ry="6" x="-28" y="-26" width="56" height="52" class="key"/>
<text x="0" y="0" class="key tap">Q</text>
</g>
<g transform="translate(90, 84)" class="key keypos-11">
<rect rx="6" ry="6" x="-28" y="-26" width="56" height="52" class="key"/>
<text x="0" y="0" class="key tap">C</text>
</g>
<g transform="translate(150, 84)" class="key keypos-12">
<rect rx="6" ry="6" x="-28" y="-26" width="56" height="52" class="key"/>
<text x="0" y="0" class="key tap">G</text>
</g>
<g transform="translate(210, 84)" class="key keypos-13">
<rect rx="6" ry="6" x="-28" y="-26" width="56" height="52" class="key"/>
<text x="0" y="0" class="key tap">D</text>
</g>
<g transform="translate(270, 112)" class="key ghost keypos-14">
<rect rx="6" ry="6" x="-28" y="-26" width="56" height="52" class="key ghost"/>
</g>
<g transform="translate(360, 112)" class="key ghost keypos-15">
<rect rx="6" ry="6" x="-28" y="-26" width="56" height="52" class="key ghost"/>
</g>
<g transform="translate(420, 84)" class="key keypos-16">
<rect rx="6" ry="6" x="-28" y="-26" width="56" height="52" class="key"/>
<text x="0" y="0" class="key tap">L</text>
</g>
<g transform="translate(480, 84)" class="key keypos-17">
<rect rx="6" ry="6" x="-28" y="-26" width="56" height="52" class="key"/>
<text x="0" y="0" class="key tap">U</text>
</g>
<g transform="translate(540, 84)" class="key keypos-18">
<rect rx="6" ry="6" x="-28" y="-26" width="56" height="52" class="key"/>
<text x="0" y="0" class="key tap">Y</text>
</g>
<g transform="translate(600, 112)" class="key keypos-19">
<rect rx="6" ry="6" x="-28" y="-26" width="56" height="52" class="key"/>
<text x="0" y="0" class="key tap">&#x27;</text>
</g>
<g transform="translate(90, 140)" class="key ghost keypos-20">
<rect rx="6" ry="6" x="-28" y="-26" width="56" height="52" class="key ghost"/>
</g>
<g transform="translate(150, 140)" class="key ghost keypos-21">
<rect rx="6" ry="6" x="-28" y="-26" width="56" height="52" class="key ghost"/>
</g>
<g transform="translate(210, 140)" class="key ghost keypos-22">
<rect rx="6" ry="6" x="-28" y="-26" width="56" height="52" class="key ghost"/>
</g>
<g transform="translate(420, 140)" class="key ghost keypos-23">
<rect rx="6" ry="6" x="-28" y="-26" width="56" height="52" class="key ghost"/>
</g>
<g transform="translate(480, 140)" class="key ghost keypos-24">
<rect rx="6" ry="6" x="-28" y="-26" width="56" height="52" class="key ghost"/>
</g>
<g transform="translate(540, 140)" class="key ghost keypos-25">
<rect rx="6" ry="6" x="-28" y="-26" width="56" height="52" class="key ghost"/>
</g>
<g transform="translate(210, 196)" class="key keypos-26">
<rect rx="6" ry="6" x="-28" y="-26" width="56" height="52" class="key"/>
<text x="0" y="0" class="key tap">NUM</text>
</g>
<g transform="translate(270, 196)" class="key keypos-27">
<rect rx="6" ry="6" x="-28" y="-26" width="56" height="52" class="key"/>
<text x="0" y="0" class="key tap">SPACE</text>
<text x="0" y="24" class="key hold">4</text>
</g>
<g transform="translate(360, 196)" class="key keypos-28">
<rect rx="6" ry="6" x="-28" y="-26" width="56" height="52" class="key"/>
<text x="0" y="0" class="key tap">E</text>
<text x="0" y="24" class="key hold">3</text>
</g>
<g transform="translate(420, 196)" class="key keypos-29">
<rect rx="6" ry="6" x="-28" y="-26" width="56" height="52" class="key"/>
<text x="0" y="0" class="key tap">SHIFT</text>
</g>
<g class="combo combopos-0">
<rect rx="6" ry="6" x="46" y="29" width="28" height="26" class="combo"/>
<text x="60" y="42" class="combo tap">W</text>
</g>
<g class="combo combopos-1">
<rect rx="6" ry="6" x="106" y="15" width="28" height="26" class="combo"/>
<text x="120" y="28" class="combo tap">M</text>
</g>
<g class="combo combopos-2">
<rect rx="6" ry="6" x="166" y="15" width="28" height="26" class="combo"/>
<text x="180" y="28" class="combo tap">B</text>
</g>
<g class="combo combopos-3">
<path d="M315,-12 h-99 a6.0,6.0 0 0 0 -6.0,6.0 v16" class="combo"/>
<path d="M315,-12 h99 a6.0,6.0 0 0 1 6.0,6.0 v16" class="combo"/>
<rect rx="6" ry="6" x="301" y="-25" width="28" height="26" class="combo"/>
<text x="315" y="-12" class="combo tap">K</text>
</g>
<g class="combo combopos-4">
<rect rx="6" ry="6" x="436" y="15" width="28" height="26" class="combo"/>
<text x="450" y="28" class="combo tap">=</text>
</g>
<g class="combo combopos-5">
<rect rx="6" ry="6" x="496" y="15" width="28" height="26" class="combo"/>
<text x="510" y="28" class="combo tap">,</text>
</g>
<g class="combo combopos-6">
<rect rx="6" ry="6" x="556" y="29" width="28" height="26" class="combo"/>
<text x="570" y="42" class="combo tap">.</text>
</g>
<g class="combo combopos-7">
<rect rx="6" ry="6" x="46" y="85" width="28" height="26" class="combo"/>
<text x="60" y="98" class="combo tap">Q</text>
</g>
<g class="combo combopos-8">
<rect rx="6" ry="6" x="106" y="71" width="28" height="26" class="combo"/>
<text x="120" y="84" class="combo tap">F</text>
</g>
<g class="combo combopos-9">
<rect rx="6" ry="6" x="166" y="71" width="28" height="26" class="combo"/>
<text x="180" y="84" class="combo tap">P</text>
</g>
<g class="combo combopos-10">
<path d="M315,124 h-99 a6.0,6.0 0 0 1 -6.0,-6.0 v-16" class="combo"/>
<path d="M315,124 h99 a6.0,6.0 0 0 0 6.0,-6.0 v-16" class="combo"/>
<rect rx="6" ry="6" x="301" y="111" width="28" height="26" class="combo"/>
<text x="315" y="124" class="combo tap">J</text>
</g>
<g class="combo combopos-11">
<rect rx="6" ry="6" x="436" y="71" width="28" height="26" class="combo"/>
<text x="450" y="84" class="combo tap">@</text>
</g>
<g class="combo combopos-12">
<rect rx="6" ry="6" x="496" y="71" width="28" height="26" class="combo"/>
<text x="510" y="84" class="combo tap">X</text>
</g>
<g class="combo combopos-13">
<rect rx="6" ry="6" x="556" y="85" width="28" height="26" class="combo"/>
<text x="570" y="98" class="combo tap">Z</text>
</g>
<g class="combo combopos-14">
<path d="M240,150 h-24 a6.0,6.0 0 0 0 -6.0,6.0 v21" class="combo"/>
<path d="M240,150 h24 a6.0,6.0 0 0 1 6.0,6.0 v21" class="combo"/>
<rect rx="6" ry="6" x="195" y="137" width="90" height="26" class="combo"/>
<text x="240" y="150" class="combo tap">Screenshot</text>
</g>
</g>
</g>
<g transform="translate(30, 572)" class="layer-2">
<text x="0" y="28" class="label">2:</text>
<g transform="translate(0, 56)">
<g transform="translate(30, 56)" class="key keypos-0">
<rect rx="6" ry="6" x="-28" y="-26" width="56" height="52" class="key"/>
<text x="0" y="0" class="key tap">Gui</text>
<text x="0" y="24" class="key hold">sticky</text>
</g>
<g transform="translate(90, 28)" class="key keypos-1">
<rect rx="6" ry="6" x="-28" y="-26" width="56" height="52" class="key"/>
<text x="0" y="0" class="key tap">Alt</text>
<text x="0" y="24" class="key hold">sticky</text>
</g>
<g transform="translate(150, 28)" class="key keypos-2">
<rect rx="6" ry="6" x="-28" y="-26" width="56" height="52" class="key"/>
<text x="0" y="0" class="key tap">Shift</text>
<text x="0" y="24" class="key hold">sticky</text>
</g>
<g transform="translate(210, 28)" class="key keypos-3">
<rect rx="6" ry="6" x="-28" y="-26" width="56" height="52" class="key"/>
<text x="0" y="0" class="key tap">Ctrl</text>
<text x="0" y="24" class="key hold">sticky</text>
</g>
<g transform="translate(270, 56)" class="key ghost keypos-4">
<rect rx="6" ry="6" x="-28" y="-26" width="56" height="52" class="key ghost"/>
</g>
<g transform="translate(360, 56)" class="key ghost keypos-5">
<rect rx="6" ry="6" x="-28" y="-26" width="56" height="52" class="key ghost"/>
</g>
<g transform="translate(420, 28)" class="key keypos-6">
<rect rx="6" ry="6" x="-28" y="-26" width="56" height="52" class="key"/>
<text x="0" y="0" class="key tap">1</text>
<text x="0" y="-24" class="key shifted">%</text>
</g>
<g transform="translate(480, 28)" class="key keypos-7">
<rect rx="6" ry="6" x="-28" y="-26" width="56" height="52" class="key"/>
<text x="0" y="0" class="key tap">2</text>
<text x="0" y="-24" class="key shifted">;</text>
</g>
<g transform="translate(540, 28)" class="key keypos-8">
<rect rx="6" ry="6" x="-28" y="-26" width="56" height="52" class="key"/>
<text x="0" y="0" class="key tap">3</text>
<text x="0" y="-24" class="key shifted">?</text>
</g>
<g transform="translate(600, 56)" class="key keypos-9">
<rect rx="6" ry="6" x="-28" y="-26" width="56" height="52" class="key"/>
<text x="0" y="0" class="key tap">4</text>
<text x="0" y="-24" class="key shifted">&quot;</text>
</g>
<g transform="translate(30, 112)" class="key keypos-10">
<rect rx="6" ry="6" x="-28" y="-26" width="56" height="52" class="key"/>
<text x="0" y="0" class="key tap">/</text>
<text x="0" y="-24" class="key shifted">\</text>
</g>
<g transform="translate(90, 84)" class="key keypos-11">
<rect rx="6" ry="6" x="-28" y="-26" width="56" height="52" class="key"/>
<text x="0" y="0" class="key tap">*</text>
<text x="0" y="-24" class="key shifted">#</text>
</g>
<g transform="translate(150, 84)" class="key keypos-12">
<rect rx="6" ry="6" x="-28" y="-26" width="56" height="52" class="key"/>
<text x="0" y="0" class="key tap">+</text>
<text x="0" y="-24" class="key shifted">&amp;</text>
</g>
<g transform="translate(210, 84)" class="key keypos-13">
<rect rx="6" ry="6" x="-28" y="-26" width="56" height="52" class="key"/>
<text x="0" y="0" class="key tap">-</text>
<text x="0" y="-24" class="key shifted">_</text>
</g>
<g transform="translate(270, 112)" class="key ghost keypos-14">
<rect rx="6" ry="6" x="-28" y="-26" width="56" height="52" class="key ghost"/>
</g>
<g transform="translate(360, 112)" class="key ghost keypos-15">
<rect rx="6" ry="6" x="-28" y="-26" width="56" height="52" class="key ghost"/>
</g>
<g transform="translate(420, 84)" class="key keypos-16">
<rect rx="6" ry="6" x="-28" y="-26" width="56" height="52" class="key"/>
<text x="0" y="0" class="key tap">5</text>
<text x="0" y="-24" class="key shifted">```</text>
</g>
<g transform="translate(480, 84)" class="key keypos-17">
<rect rx="6" ry="6" x="-28" y="-26" width="56" height="52" class="key"/>
<text x="0" y="0" class="key tap">6</text>
<text x="0" y="-24" class="key shifted">:</text>
</g>
<g transform="translate(540, 84)" class="key keypos-18">
<rect rx="6" ry="6" x="-28" y="-26" width="56" height="52" class="key"/>
<text x="0" y="0" class="key tap">7</text>
<text x="0" y="-24" class="key shifted">!</text>
</g>
<g transform="translate(600, 112)" class="key keypos-19">
<rect rx="6" ry="6" x="-28" y="-26" width="56" height="52" class="key"/>
<text x="0" y="0" class="key tap">8</text>
<text x="0" y="-24" class="key shifted">&#x27;</text>
</g>
<g transform="translate(90, 140)" class="key ghost keypos-20">
<rect rx="6" ry="6" x="-28" y="-26" width="56" height="52" class="key ghost"/>
</g>
<g transform="translate(150, 140)" class="key ghost keypos-21">
<rect rx="6" ry="6" x="-28" y="-26" width="56" height="52" class="key ghost"/>
</g>
<g transform="translate(210, 140)" class="key ghost keypos-22">
<rect rx="6" ry="6" x="-28" y="-26" width="56" height="52" class="key ghost"/>
</g>
<g transform="translate(420, 140)" class="key ghost keypos-23">
<rect rx="6" ry="6" x="-28" y="-26" width="56" height="52" class="key ghost"/>
</g>
<g transform="translate(480, 140)" class="key ghost keypos-24">
<rect rx="6" ry="6" x="-28" y="-26" width="56" height="52" class="key ghost"/>
</g>
<g transform="translate(540, 140)" class="key ghost keypos-25">
<rect rx="6" ry="6" x="-28" y="-26" width="56" height="52" class="key ghost"/>
</g>
<g transform="translate(210, 196)" class="key trans keypos-26">
<rect rx="6" ry="6" x="-28" y="-26" width="56" height="52" class="key trans"/>
</g>
<g transform="translate(270, 196)" class="key keypos-27">
<rect rx="6" ry="6" x="-28" y="-26" width="56" height="52" class="key"/>
<text x="0" y="0" class="key tap">SPACE</text>
<text x="0" y="24" class="key hold">4</text>
</g>
<g transform="translate(360, 196)" class="key keypos-28">
<rect rx="6" ry="6" x="-28" y="-26" width="56" height="52" class="key"/>
<text x="0" y="0" class="key tap">0</text>
<text x="0" y="-24" class="key shifted">`</text>
</g>
<g transform="translate(420, 196)" class="key keypos-29">
<rect rx="6" ry="6" x="-28" y="-26" width="56" height="52" class="key"/>
<text x="0" y="0" class="key tap">9</text>
<text x="0" y="-24" class="key shifted">^</text>
</g>
<g class="combo combopos-0">
<rect rx="6" ry="6" x="436" y="15" width="28" height="26" class="combo"/>
<text x="450" y="28" class="combo tap">=</text>
</g>
<g class="combo combopos-1">
<rect rx="6" ry="6" x="496" y="15" width="28" height="26" class="combo"/>
<text x="510" y="28" class="combo tap">,</text>
</g>
<g class="combo combopos-2">
<rect rx="6" ry="6" x="556" y="29" width="28" height="26" class="combo"/>
<text x="570" y="42" class="combo tap">.</text>
</g>
<g class="combo combopos-3">
<rect rx="6" ry="6" x="436" y="71" width="28" height="26" class="combo"/>
<text x="450" y="84" class="combo tap">@</text>
</g>
<g class="combo combopos-4">
<path d="M240,150 h-24 a6.0,6.0 0 0 0 -6.0,6.0 v21" class="combo"/>
<path d="M240,150 h24 a6.0,6.0 0 0 1 6.0,6.0 v21" class="combo"/>
<rect rx="6" ry="6" x="195" y="137" width="90" height="26" class="combo"/>
<text x="240" y="150" class="combo tap">Screenshot</text>
</g>
<g class="combo combopos-5">
<rect rx="6" ry="6" x="46" y="85" width="28" height="26" class="combo"/>
<text x="60" y="98" class="combo tap">€</text>
</g>
<g class="combo combopos-6">
<rect rx="6" ry="6" x="106" y="71" width="28" height="26" class="combo"/>
<text x="120" y="84" class="combo tap">$</text>
</g>
<g class="combo combopos-7">
<rect rx="6" ry="6" x="166" y="71" width="28" height="26" class="combo"/>
<text x="180" y="84" class="combo tap">£</text>
</g>
<g class="combo combopos-8">
<rect rx="6" ry="6" x="496" y="71" width="28" height="26" class="combo"/>
<text x="510" y="84" class="combo tap">|</text>
</g>
<g class="combo combopos-9">
<rect rx="6" ry="6" x="556" y="85" width="28" height="26" class="combo"/>
<text x="570" y="98" class="combo tap">~</text>
</g>
</g>
</g>
<g transform="translate(30, 852)" class="layer-3">
<text x="0" y="28" class="label">3:</text>
<g transform="translate(0, 56)">
<g transform="translate(30, 56)" class="key keypos-0">
<rect rx="6" ry="6" x="-28" y="-26" width="56" height="52" class="key"/>
<text x="0" y="0" class="key tap">\</text>
</g>
<g transform="translate(90, 28)" class="key keypos-1">
<rect rx="6" ry="6" x="-28" y="-26" width="56" height="52" class="key"/>
<text x="0" y="0" class="key tap">#</text>
</g>
<g transform="translate(150, 28)" class="key keypos-2">
<rect rx="6" ry="6" x="-28" y="-26" width="56" height="52" class="key"/>
<text x="0" y="0" class="key tap">&amp;</text>
</g>
<g transform="translate(210, 28)" class="key keypos-3">
<rect rx="6" ry="6" x="-28" y="-26" width="56" height="52" class="key"/>
<text x="0" y="0" class="key tap">_</text>
</g>
<g transform="translate(270, 56)" class="key ghost keypos-4">
<rect rx="6" ry="6" x="-28" y="-26" width="56" height="52" class="key ghost"/>
</g>
<g transform="translate(360, 56)" class="key ghost keypos-5">
<rect rx="6" ry="6" x="-28" y="-26" width="56" height="52" class="key ghost"/>
</g>
<g transform="translate(420, 28)" class="key keypos-6">
<rect rx="6" ry="6" x="-28" y="-26" width="56" height="52" class="key"/>
<text x="0" y="0" class="key tap">%</text>
</g>
<g transform="translate(480, 28)" class="key keypos-7">
<rect rx="6" ry="6" x="-28" y="-26" width="56" height="52" class="key"/>
<text x="0" y="0" class="key tap">;</text>
</g>
<g transform="translate(540, 28)" class="key keypos-8">
<rect rx="6" ry="6" x="-28" y="-26" width="56" height="52" class="key"/>
<text x="0" y="0" class="key tap">?</text>
</g>
<g transform="translate(600, 56)" class="key keypos-9">
<rect rx="6" ry="6" x="-28" y="-26" width="56" height="52" class="key"/>
<text x="0" y="0" class="key tap">&quot;</text>
</g>
<g transform="translate(30, 112)" class="key keypos-10">
<rect rx="6" ry="6" x="-28" y="-26" width="56" height="52" class="key"/>
<text x="0" y="0" class="key tap">/</text>
</g>
<g transform="translate(90, 84)" class="key keypos-11">
<rect rx="6" ry="6" x="-28" y="-26" width="56" height="52" class="key"/>
<text x="0" y="0" class="key tap">*</text>
</g>
<g transform="translate(150, 84)" class="key keypos-12">
<rect rx="6" ry="6" x="-28" y="-26" width="56" height="52" class="key"/>
<text x="0" y="0" class="key tap">+</text>
</g>
<g transform="translate(210, 84)" class="key keypos-13">
<rect rx="6" ry="6" x="-28" y="-26" width="56" height="52" class="key"/>
<text x="0" y="0" class="key tap">-</text>
</g>
<g transform="translate(270, 112)" class="key ghost keypos-14">
<rect rx="6" ry="6" x="-28" y="-26" width="56" height="52" class="key ghost"/>
</g>
<g transform="translate(360, 112)" class="key ghost keypos-15">
<rect rx="6" ry="6" x="-28" y="-26" width="56" height="52" class="key ghost"/>
</g>
<g transform="translate(420, 84)" class="key keypos-16">
<rect rx="6" ry="6" x="-28" y="-26" width="56" height="52" class="key"/>
<text x="0" y="0" class="key tap">`</text>
</g>
<g transform="translate(480, 84)" class="key keypos-17">
<rect rx="6" ry="6" x="-28" y="-26" width="56" height="52" class="key"/>
<text x="0" y="0" class="key tap">:</text>
</g>
<g transform="translate(540, 84)" class="key keypos-18">
<rect rx="6" ry="6" x="-28" y="-26" width="56" height="52" class="key"/>
<text x="0" y="0" class="key tap">!</text>
</g>
<g transform="translate(600, 112)" class="key keypos-19">
<rect rx="6" ry="6" x="-28" y="-26" width="56" height="52" class="key"/>
<text x="0" y="0" class="key tap">&#x27;</text>
</g>
<g transform="translate(90, 140)" class="key ghost keypos-20">
<rect rx="6" ry="6" x="-28" y="-26" width="56" height="52" class="key ghost"/>
</g>
<g transform="translate(150, 140)" class="key ghost keypos-21">
<rect rx="6" ry="6" x="-28" y="-26" width="56" height="52" class="key ghost"/>
</g>
<g transform="translate(210, 140)" class="key ghost keypos-22">
<rect rx="6" ry="6" x="-28" y="-26" width="56" height="52" class="key ghost"/>
</g>
<g transform="translate(420, 140)" class="key ghost keypos-23">
<rect rx="6" ry="6" x="-28" y="-26" width="56" height="52" class="key ghost"/>
</g>
<g transform="translate(480, 140)" class="key ghost keypos-24">
<rect rx="6" ry="6" x="-28" y="-26" width="56" height="52" class="key ghost"/>
</g>
<g transform="translate(540, 140)" class="key ghost keypos-25">
<rect rx="6" ry="6" x="-28" y="-26" width="56" height="52" class="key ghost"/>
</g>
<g transform="translate(210, 196)" class="key trans keypos-26">
<rect rx="6" ry="6" x="-28" y="-26" width="56" height="52" class="key trans"/>
</g>
<g transform="translate(270, 196)" class="key trans keypos-27">
<rect rx="6" ry="6" x="-28" y="-26" width="56" height="52" class="key trans"/>
</g>
<g transform="translate(360, 196)" class="key held keypos-28">
<rect rx="6" ry="6" x="-28" y="-26" width="56" height="52" class="key held"/>
</g>
<g transform="translate(420, 196)" class="key trans keypos-29">
<rect rx="6" ry="6" x="-28" y="-26" width="56" height="52" class="key trans"/>
</g>
<g class="combo combopos-0">
<rect rx="6" ry="6" x="436" y="15" width="28" height="26" class="combo"/>
<text x="450" y="28" class="combo tap">=</text>
</g>
<g class="combo combopos-1">
<rect rx="6" ry="6" x="496" y="15" width="28" height="26" class="combo"/>
<text x="510" y="28" class="combo tap">,</text>
</g>
<g class="combo combopos-2">
<rect rx="6" ry="6" x="556" y="29" width="28" height="26" class="combo"/>
<text x="570" y="42" class="combo tap">.</text>
</g>
<g class="combo combopos-3">
<rect rx="6" ry="6" x="436" y="71" width="28" height="26" class="combo"/>
<text x="450" y="84" class="combo tap">@</text>
</g>
<g class="combo combopos-4">
<path d="M240,150 h-24 a6.0,6.0 0 0 0 -6.0,6.0 v21" class="combo"/>
<path d="M240,150 h24 a6.0,6.0 0 0 1 6.0,6.0 v21" class="combo"/>
<rect rx="6" ry="6" x="195" y="137" width="90" height="26" class="combo"/>
<text x="240" y="150" class="combo tap">Screenshot</text>
</g>
<g class="combo combopos-5">
<rect rx="6" ry="6" x="46" y="85" width="28" height="26" class="combo"/>
<text x="60" y="98" class="combo tap">€</text>
</g>
<g class="combo combopos-6">
<rect rx="6" ry="6" x="106" y="71" width="28" height="26" class="combo"/>
<text x="120" y="84" class="combo tap">$</text>
</g>
<g class="combo combopos-7">
<rect rx="6" ry="6" x="166" y="71" width="28" height="26" class="combo"/>
<text x="180" y="84" class="combo tap">£</text>
</g>
<g class="combo combopos-8">
<rect rx="6" ry="6" x="496" y="71" width="28" height="26" class="combo"/>
<text x="510" y="84" class="combo tap">|</text>
</g>
<g class="combo combopos-9">
<rect rx="6" ry="6" x="556" y="85" width="28" height="26" class="combo"/>
<text x="570" y="98" class="combo tap">~</text>
</g>
</g>
</g>
<g transform="translate(30, 1132)" class="layer-4">
<text x="0" y="28" class="label">4:</text>
<g transform="translate(0, 56)">
<g transform="translate(30, 56)" class="key trans keypos-0">
<rect rx="6" ry="6" x="-28" y="-26" width="56" height="52" class="key trans"/>
</g>
<g transform="translate(90, 28)" class="key trans keypos-1">
<rect rx="6" ry="6" x="-28" y="-26" width="56" height="52" class="key trans"/>
</g>
<g transform="translate(150, 28)" class="key trans keypos-2">
<rect rx="6" ry="6" x="-28" y="-26" width="56" height="52" class="key trans"/>
</g>
<g transform="translate(210, 28)" class="key trans keypos-3">
<rect rx="6" ry="6" x="-28" y="-26" width="56" height="52" class="key trans"/>
</g>
<g transform="translate(270, 56)" class="key ghost keypos-4">
<rect rx="6" ry="6" x="-28" y="-26" width="56" height="52" class="key ghost"/>
</g>
<g transform="translate(360, 56)" class="key ghost keypos-5">
<rect rx="6" ry="6" x="-28" y="-26" width="56" height="52" class="key ghost"/>
</g>
<g transform="translate(420, 28)" class="key trans keypos-6">
<rect rx="6" ry="6" x="-28" y="-26" width="56" height="52" class="key trans"/>
</g>
<g transform="translate(480, 28)" class="key trans keypos-7">
<rect rx="6" ry="6" x="-28" y="-26" width="56" height="52" class="key trans"/>
</g>
<g transform="translate(540, 28)" class="key trans keypos-8">
<rect rx="6" ry="6" x="-28" y="-26" width="56" height="52" class="key trans"/>
</g>
<g transform="translate(600, 56)" class="key trans keypos-9">
<rect rx="6" ry="6" x="-28" y="-26" width="56" height="52" class="key trans"/>
</g>
<g transform="translate(30, 112)" class="key trans keypos-10">
<rect rx="6" ry="6" x="-28" y="-26" width="56" height="52" class="key trans"/>
</g>
<g transform="translate(90, 84)" class="key trans keypos-11">
<rect rx="6" ry="6" x="-28" y="-26" width="56" height="52" class="key trans"/>
</g>
<g transform="translate(150, 84)" class="key trans keypos-12">
<rect rx="6" ry="6" x="-28" y="-26" width="56" height="52" class="key trans"/>
</g>
<g transform="translate(210, 84)" class="key trans keypos-13">
<rect rx="6" ry="6" x="-28" y="-26" width="56" height="52" class="key trans"/>
</g>
<g transform="translate(270, 112)" class="key ghost keypos-14">
<rect rx="6" ry="6" x="-28" y="-26" width="56" height="52" class="key ghost"/>
</g>
<g transform="translate(360, 112)" class="key ghost keypos-15">
<rect rx="6" ry="6" x="-28" y="-26" width="56" height="52" class="key ghost"/>
</g>
<g transform="translate(420, 84)" class="key trans keypos-16">
<rect rx="6" ry="6" x="-28" y="-26" width="56" height="52" class="key trans"/>
</g>
<g transform="translate(480, 84)" class="key trans keypos-17">
<rect rx="6" ry="6" x="-28" y="-26" width="56" height="52" class="key trans"/>
</g>
<g transform="translate(540, 84)" class="key trans keypos-18">
<rect rx="6" ry="6" x="-28" y="-26" width="56" height="52" class="key trans"/>
</g>
<g transform="translate(600, 112)" class="key trans keypos-19">
<rect rx="6" ry="6" x="-28" y="-26" width="56" height="52" class="key trans"/>
</g>
<g transform="translate(90, 140)" class="key ghost keypos-20">
<rect rx="6" ry="6" x="-28" y="-26" width="56" height="52" class="key ghost"/>
</g>
<g transform="translate(150, 140)" class="key ghost keypos-21">
<rect rx="6" ry="6" x="-28" y="-26" width="56" height="52" class="key ghost"/>
</g>
<g transform="translate(210, 140)" class="key ghost keypos-22">
<rect rx="6" ry="6" x="-28" y="-26" width="56" height="52" class="key ghost"/>
</g>
<g transform="translate(420, 140)" class="key ghost keypos-23">
<rect rx="6" ry="6" x="-28" y="-26" width="56" height="52" class="key ghost"/>
</g>
<g transform="translate(480, 140)" class="key ghost keypos-24">
<rect rx="6" ry="6" x="-28" y="-26" width="56" height="52" class="key ghost"/>
</g>
<g transform="translate(540, 140)" class="key ghost keypos-25">
<rect rx="6" ry="6" x="-28" y="-26" width="56" height="52" class="key ghost"/>
</g>
<g transform="translate(210, 196)" class="key trans keypos-26">
<rect rx="6" ry="6" x="-28" y="-26" width="56" height="52" class="key trans"/>
</g>
<g transform="translate(270, 196)" class="key held keypos-27">
<rect rx="6" ry="6" x="-28" y="-26" width="56" height="52" class="key held"/>
</g>
<g transform="translate(360, 196)" class="key trans keypos-28">
<rect rx="6" ry="6" x="-28" y="-26" width="56" height="52" class="key trans"/>
</g>
<g transform="translate(420, 196)" class="key trans keypos-29">
<rect rx="6" ry="6" x="-28" y="-26" width="56" height="52" class="key trans"/>
</g>
</g>
</g>
</svg>
