<svg width="795" height="1042" viewBox="0 0 795 1042" class="keymap" xmlns="http://www.w3.org/2000/svg" xmlns:xlink="http://www.w3.org/1999/xlink">
<style>/* font and background color specifications */
svg.keymap {
  font-family: SFMono-Regular,Consolas,Liberation Mono,Menlo,monospace;
  font-size: 14px;
  font-kerning: normal;
  text-rendering: optimizeLegibility;
  fill: #24292e;
}

/* default key styling */
rect.key {
  fill: #f6f8fa;
  stroke: #c9cccf;
  stroke-width: 1;
}

/* default key side styling, only used is draw_key_sides is set */
rect.side {
  filter: brightness(90%);
}

/* color accent for combo boxes */
rect.combo, rect.combo-separate {
  fill: #cdf;
}

/* color accent for held keys */
rect.held, rect.combo.held {
  fill: #fdd;
}

/* color accent for ghost (optional) keys */
rect.ghost, rect.combo.ghost {
  display: none;
}

text {
  text-anchor: middle;
  dominant-baseline: middle;
}

/* styling for layer labels */
text.label {
  font-weight: bold;
  text-anchor: start;
  stroke: white;
  stroke-width: 2;
  paint-order: stroke;
}

/* styling for combo tap, and key hold/shifted label text */
text.combo, text.hold, text.shifted {
  font-size: 11px;
}

text.hold {
  text-anchor: middle;
  dominant-baseline: auto;
}

text.shifted {
  text-anchor: middle;
  dominant-baseline: hanging;
}

/* styling for hold/shifted label text in combo box */
text.combo.hold, text.combo.shifted {
  font-size: 8px;
}

/* lighter symbol for transparent keys */
text.trans {
  fill: #7b7e81;
}

/* styling for combo dendrons */
path.combo {
  stroke-width: 1;
  stroke: gray;
  fill: none;
}

/* Start Tabler Icons Cleanup */
/* cannot use height/width with glyphs */
.icon-tabler > path {
  fill: inherit;
  stroke: inherit;
  stroke-width: 2;
}
/* hide tabler's default box */
.icon-tabler > path[stroke="none"][fill="none"] {
  visibility: hidden;
}
/* End Tabler Icons Cleanup */</style>
<g transform="translate(30, 0)" class="layer-base">
<text x="0" y="28" class="label">base:</text>
<g transform="translate(0, 56)">
<g transform="translate(30, 93) rotate(-8.0)" class="key keypos-0">
<rect rx="6" ry="6" x="-28" y="-26" width="55" height="52" class="key"/>
<text x="0" y="0" class="key tap">R</text>
<text x="0" y="24" class="key hold">Gui</text>
</g>
<g transform="translate(95, 46) rotate(-3.0)" class="key keypos-1">
<rect rx="6" ry="6" x="-28" y="-26" width="55" height="52" class="key"/>
<text x="0" y="0" class="key tap">S</text>
<text x="0" y="24" class="key hold">Alt</text>
</g>
<g transform="translate(161, 28)" class="key keypos-2">
<rect rx="6" ry="6" x="-28" y="-26" width="55" height="52" class="key"/>
<text x="0" y="0" class="key tap">T</text>
<text x="0" y="24" class="key hold">Shift</text>
</g>
<g transform="translate(222, 42)" class="key keypos-3">
<rect rx="6" ry="6" x="-28" y="-26" width="55" height="52" class="key"/>
<text x="0" y="0" class="key tap">H</text>
<text x="0" y="24" class="key hold">Ctrl</text>
</g>
<g transform="translate(283, 71)" class="key ghost keypos-4">
<rect rx="6" ry="6" x="-28" y="-26" width="55" height="52" class="key ghost"/>
</g>
<g transform="translate(449, 71)" class="key ghost keypos-5">
<rect rx="6" ry="6" x="-28" y="-26" width="55" height="52" class="key ghost"/>
</g>
<g transform="translate(510, 42)" class="key keypos-6">
<rect rx="6" ry="6" x="-28" y="-26" width="55" height="52" class="key"/>
<text x="0" y="0" class="key tap">N</text>
<text x="0" y="24" class="key hold">Ctrl</text>
</g>
<g transform="translate(570, 28)" class="key keypos-7">
<rect rx="6" ry="6" x="-28" y="-26" width="55" height="52" class="key"/>
<text x="0" y="0" class="key tap">A</text>
<text x="0" y="24" class="key hold">Shift</text>
</g>
<g transform="translate(637, 46) rotate(3.0)" class="key keypos-8">
<rect rx="6" ry="6" x="-28" y="-26" width="55" height="52" class="key"/>
<text x="0" y="0" class="key tap">I</text>
<text x="0" y="24" class="key hold">Alt</text>
</g>
<g transform="translate(702, 93) rotate(8.0)" class="key keypos-9">
<rect rx="6" ry="6" x="-28" y="-26" width="55" height="52" class="key"/>
<text x="0" y="0" class="key tap">O</text>
<text x="0" y="24" class="key hold">Gui</text>
</g>
<g transform="translate(38, 150) rotate(-8.0)" class="key keypos-10">
<rect rx="6" ry="6" x="-28" y="-26" width="55" height="52" class="key"/>
<text x="0" y="0" class="key tap">Q</text>
</g>
<g transform="translate(98, 103) rotate(-3.0)" class="key keypos-11">
<rect rx="6" ry="6" x="-28" y="-26" width="55" height="52" class="key"/>
<text x="0" y="0" class="key tap">C</text>
</g>
<g transform="translate(161, 86)" class="key keypos-12">
<rect rx="6" ry="6" x="-28" y="-26" width="55" height="52" class="key"/>
<text x="0" y="0" class="key tap">G</text>
</g>
<g transform="translate(222, 100)" class="key keypos-13">
<rect rx="6" ry="6" x="-28" y="-26" width="55" height="52" class="key"/>
<text x="0" y="0" class="key tap">D</text>
</g>
<g transform="translate(283, 129)" class="key ghost keypos-14">
<rect rx="6" ry="6" x="-28" y="-26" width="55" height="52" class="key ghost"/>
</g>
<g transform="translate(449, 129)" class="key ghost keypos-15">
<rect rx="6" ry="6" x="-28" y="-26" width="55" height="52" class="key ghost"/>
</g>
<g transform="translate(510, 100)" class="key keypos-16">
<rect rx="6" ry="6" x="-28" y="-26" width="55" height="52" class="key"/>
<text x="0" y="0" class="key tap">L</text>
</g>
<g transform="translate(570, 86)" class="key keypos-17">
<rect rx="6" ry="6" x="-28" y="-26" width="55" height="52" class="key"/>
<text x="0" y="0" class="key tap">U</text>
</g>
<g transform="translate(634, 103) rotate(3.0)" class="key keypos-18">
<rect rx="6" ry="6" x="-28" y="-26" width="55" height="52" class="key"/>
<text x="0" y="0" class="key tap">Y</text>
</g>
<g transform="translate(694, 150) rotate(8.0)" class="key keypos-19">
<rect rx="6" ry="6" x="-28" y="-26" width="55" height="52" class="key"/>
<text x="0" y="0" class="key tap">&#x27;</text>
</g>
<g transform="translate(101, 161) rotate(-3.0)" class="key ghost keypos-20">
<rect rx="6" ry="6" x="-28" y="-26" width="55" height="52" class="key ghost"/>
</g>
<g transform="translate(161, 143)" class="key ghost keypos-21">
<rect rx="6" ry="6" x="-28" y="-26" width="55" height="52" class="key ghost"/>
</g>
<g transform="translate(222, 158)" class="key ghost keypos-22">
<rect rx="6" ry="6" x="-28" y="-26" width="55" height="52" class="key ghost"/>
</g>
<g transform="translate(510, 158)" class="key ghost keypos-23">
<rect rx="6" ry="6" x="-28" y="-26" width="55" height="52" class="key ghost"/>
</g>
<g transform="translate(570, 143)" class="key ghost keypos-24">
<rect rx="6" ry="6" x="-28" y="-26" width="55" height="52" class="key ghost"/>
</g>
<g transform="translate(631, 161) rotate(3.0)" class="key ghost keypos-25">
<rect rx="6" ry="6" x="-28" y="-26" width="55" height="52" class="key ghost"/>
</g>
<g transform="translate(237, 230)" class="key keypos-26">
<rect rx="6" ry="6" x="-28" y="-26" width="55" height="52" class="key"/>
<text x="0" y="0" class="key tap">NUM</text>
</g>
<g transform="translate(298, 245)" class="key keypos-27">
<rect rx="6" ry="6" x="-28" y="-26" width="55" height="52" class="key"/>
<text x="0" y="0" class="key tap">SPACE</text>
</g>
<g transform="translate(433, 245)" class="key keypos-28">
<rect rx="6" ry="6" x="-28" y="-26" width="55" height="52" class="key"/>
<text x="0" y="0" class="key tap">E</text>
<text x="0" y="24" class="key hold">sym</text>
</g>
<g transform="translate(494, 230)" class="key keypos-29">
<rect rx="6" ry="6" x="-28" y="-26" width="55" height="52" class="key"/>
<text x="0" y="0" class="key tap">SHIFT</text>
</g>
<g class="combo combopos-0">
<rect rx="6" ry="6" x="48" y="56" width="28" height="26" class="combo"/>
<text x="62" y="69" class="combo tap">W</text>
</g>
<g class="combo combopos-1">
<rect rx="6" ry="6" x="114" y="24" width="28" height="26" class="combo"/>
<text x="128" y="37" class="combo tap">M</text>
</g>
<g class="combo combopos-2">
<rect rx="6" ry="6" x="177" y="22" width="28" height="26" class="combo"/>
<text x="191" y="35" class="combo tap">B</text>
</g>
<g class="combo combopos-3">
<path d="M366,2 h-138 a6.0,6.0 0 0 0 -6.0,6.0 v16" class="combo"/>
<path d="M366,2 h138 a6.0,6.0 0 0 1 6.0,6.0 v16" class="combo"/>
<rect rx="6" ry="6" x="352" y="-11" width="28" height="26" class="combo"/>
<text x="366" y="2" class="combo tap">K</text>
</g>
<g class="combo combopos-4">
<rect rx="6" ry="6" x="526" y="22" width="28" height="26" class="combo"/>
<text x="540" y="35" class="combo tap">=</text>
</g>
<g class="combo combopos-5">
<rect rx="6" ry="6" x="590" y="24" width="28" height="26" class="combo"/>
<text x="604" y="37" class="combo tap">,</text>
</g>
<g class="combo combopos-6">
<rect rx="6" ry="6" x="655" y="56" width="28" height="26" class="combo"/>
<text x="669" y="69" class="combo tap">.</text>
</g>
<g class="combo combopos-7">
<rect rx="6" ry="6" x="54" y="114" width="28" height="26" class="combo"/>
<text x="68" y="127" class="combo tap">Q</text>
</g>
<g class="combo combopos-8">
<rect rx="6" ry="6" x="115" y="81" width="28" height="26" class="combo"/>
<text x="129" y="94" class="combo tap">F</text>
</g>
<g class="combo combopos-9">
<rect rx="6" ry="6" x="177" y="80" width="28" height="26" class="combo"/>
<text x="191" y="93" class="combo tap">P</text>
</g>
<g class="combo combopos-10">
<path d="M366,140 h-138 a6.0,6.0 0 0 1 -6.0,-6.0 v-16" class="combo"/>
<path d="M366,140 h138 a6.0,6.0 0 0 0 6.0,-6.0 v-16" class="combo"/>
<rect rx="6" ry="6" x="352" y="127" width="28" height="26" class="combo"/>
<text x="366" y="140" class="combo tap">J</text>
</g>
<g class="combo combopos-11">
<rect rx="6" ry="6" x="526" y="80" width="28" height="26" class="combo"/>
<text x="540" y="93" class="combo tap">@</text>
</g>
<g class="combo combopos-12">
<rect rx="6" ry="6" x="588" y="81" width="28" height="26" class="combo"/>
<text x="602" y="94" class="combo tap">X</text>
</g>
<g class="combo combopos-13">
<rect rx="6" ry="6" x="650" y="114" width="28" height="26" class="combo"/>
<text x="664" y="127" class="combo tap">Z</text>
</g>
<g class="combo combopos-14">
<path d="M267,184 h-24 a6.0,6.0 0 0 0 -6.0,6.0 v21" class="combo"/>
<path d="M267,184 h24 a6.0,6.0 0 0 1 6.0,6.0 v36" class="combo"/>
<rect rx="6" ry="6" x="222" y="171" width="90" height="26" class="combo"/>
<text x="267" y="184" class="combo tap">Screenshot</text>
</g>
<g class="combo combopos-15">
<rect rx="6" ry="6" x="20" y="109" width="28" height="26" class="combo"/>
<text x="34" y="122" class="combo tap">&lt;</text>
</g>
<g class="combo combopos-16">
<rect rx="6" ry="6" x="82" y="62" width="28" height="26" class="combo"/>
<text x="96" y="75" class="combo tap">[</text>
</g>
<g class="combo combopos-17">
<rect rx="6" ry="6" x="147" y="44" width="28" height="26" class="combo"/>
<text x="161" y="57" class="combo tap">{</text>
</g>
<g class="combo combopos-18">
<rect rx="6" ry="6" x="208" y="58" width="28" height="26" class="combo"/>
<text x="222" y="71" class="combo tap">(</text>
</g>
<g class="combo combopos-19">
<rect rx="6" ry="6" x="496" y="58" width="28" height="26" class="combo"/>
<text x="510" y="71" class="combo tap">)</text>
</g>
<g class="combo combopos-20">
<rect rx="6" ry="6" x="556" y="44" width="28" height="26" class="combo"/>
<text x="570" y="57" class="combo tap">}</text>
</g>
<g class="combo combopos-21">
<rect rx="6" ry="6" x="621" y="62" width="28" height="26" class="combo"/>
<text x="635" y="75" class="combo tap">]</text>
</g>
<g class="combo combopos-22">
<rect rx="6" ry="6" x="684" y="109" width="28" height="26" class="combo"/>
<text x="698" y="122" class="combo tap">&gt;</text>
</g>
</g>
</g>
<g transform="translate(30, 329)" class="layer-num">
<text x="0" y="28" class="label">num:</text>
<g transform="translate(0, 56)">
<g transform="translate(30, 93) rotate(-8.0)" class="key keypos-0">
<rect rx="6" ry="6" x="-28" y="-26" width="55" height="52" class="key"/>
<text x="0" y="0" class="key tap">Gui</text>
<text x="0" y="24" class="key hold">sticky</text>
</g>
<g transform="translate(95, 46) rotate(-3.0)" class="key keypos-1">
<rect rx="6" ry="6" x="-28" y="-26" width="55" height="52" class="key"/>
<text x="0" y="0" class="key tap">Alt</text>
<text x="0" y="24" class="key hold">sticky</text>
</g>
<g transform="translate(161, 28)" class="key keypos-2">
<rect rx="6" ry="6" x="-28" y="-26" width="55" height="52" class="key"/>
<text x="0" y="0" class="key tap">Shift</text>
<text x="0" y="24" class="key hold">sticky</text>
</g>
<g transform="translate(222, 42)" class="key keypos-3">
<rect rx="6" ry="6" x="-28" y="-26" width="55" height="52" class="key"/>
<text x="0" y="0" class="key tap">Ctrl</text>
<text x="0" y="24" class="key hold">sticky</text>
</g>
<g transform="translate(283, 71)" class="key ghost keypos-4">
<rect rx="6" ry="6" x="-28" y="-26" width="55" height="52" class="key ghost"/>
</g>
<g transform="translate(449, 71)" class="key ghost keypos-5">
<rect rx="6" ry="6" x="-28" y="-26" width="55" height="52" class="key ghost"/>
</g>
<g transform="translate(510, 42)" class="key keypos-6">
<rect rx="6" ry="6" x="-28" y="-26" width="55" height="52" class="key"/>
<text x="0" y="0" class="key tap">1</text>
<text x="0" y="-24" class="key shifted">%</text>
</g>
<g transform="translate(570, 28)" class="key keypos-7">
<rect rx="6" ry="6" x="-28" y="-26" width="55" height="52" class="key"/>
<text x="0" y="0" class="key tap">2</text>
<text x="0" y="-24" class="key shifted">;</text>
</g>
<g transform="translate(637, 46) rotate(3.0)" class="key keypos-8">
<rect rx="6" ry="6" x="-28" y="-26" width="55" height="52" class="key"/>
<text x="0" y="0" class="key tap">3</text>
<text x="0" y="-24" class="key shifted">?</text>
</g>
<g transform="translate(702, 93) rotate(8.0)" class="key keypos-9">
<rect rx="6" ry="6" x="-28" y="-26" width="55" height="52" class="key"/>
<text x="0" y="0" class="key tap">4</text>
<text x="0" y="-24" class="key shifted">&quot;</text>
</g>
<g transform="translate(38, 150) rotate(-8.0)" class="key keypos-10">
<rect rx="6" ry="6" x="-28" y="-26" width="55" height="52" class="key"/>
<text x="0" y="0" class="key tap">/</text>
<text x="0" y="-24" class="key shifted">\</text>
</g>
<g transform="translate(98, 103) rotate(-3.0)" class="key keypos-11">
<rect rx="6" ry="6" x="-28" y="-26" width="55" height="52" class="key"/>
<text x="0" y="0" class="key tap">*</text>
<text x="0" y="-24" class="key shifted">#</text>
</g>
<g transform="translate(161, 86)" class="key keypos-12">
<rect rx="6" ry="6" x="-28" y="-26" width="55" height="52" class="key"/>
<text x="0" y="0" class="key tap">+</text>
<text x="0" y="-24" class="key shifted">&amp;</text>
</g>
<g transform="translate(222, 100)" class="key keypos-13">
<rect rx="6" ry="6" x="-28" y="-26" width="55" height="52" class="key"/>
<text x="0" y="0" class="key tap">-</text>
<text x="0" y="-24" class="key shifted">_</text>
</g>
<g transform="translate(283, 129)" class="key ghost keypos-14">
<rect rx="6" ry="6" x="-28" y="-26" width="55" height="52" class="key ghost"/>
</g>
<g transform="translate(449, 129)" class="key ghost keypos-15">
<rect rx="6" ry="6" x="-28" y="-26" width="55" height="52" class="key ghost"/>
</g>
<g transform="translate(510, 100)" class="key keypos-16">
<rect rx="6" ry="6" x="-28" y="-26" width="55" height="52" class="key"/>
<text x="0" y="0" class="key tap">5</text>
<text x="0" y="-24" class="key shifted">```</text>
</g>
<g transform="translate(570, 86)" class="key keypos-17">
<rect rx="6" ry="6" x="-28" y="-26" width="55" height="52" class="key"/>
<text x="0" y="0" class="key tap">6</text>
<text x="0" y="-24" class="key shifted">:</text>
</g>
<g transform="translate(634, 103) rotate(3.0)" class="key keypos-18">
<rect rx="6" ry="6" x="-28" y="-26" width="55" height="52" class="key"/>
<text x="0" y="0" class="key tap">7</text>
<text x="0" y="-24" class="key shifted">!</text>
</g>
<g transform="translate(694, 150) rotate(8.0)" class="key keypos-19">
<rect rx="6" ry="6" x="-28" y="-26" width="55" height="52" class="key"/>
<text x="0" y="0" class="key tap">8</text>
<text x="0" y="-24" class="key shifted">&#x27;</text>
</g>
<g transform="translate(101, 161) rotate(-3.0)" class="key ghost keypos-20">
<rect rx="6" ry="6" x="-28" y="-26" width="55" height="52" class="key ghost"/>
</g>
<g transform="translate(161, 143)" class="key ghost keypos-21">
<rect rx="6" ry="6" x="-28" y="-26" width="55" height="52" class="key ghost"/>
</g>
<g transform="translate(222, 158)" class="key ghost keypos-22">
<rect rx="6" ry="6" x="-28" y="-26" width="55" height="52" class="key ghost"/>
</g>
<g transform="translate(510, 158)" class="key ghost keypos-23">
<rect rx="6" ry="6" x="-28" y="-26" width="55" height="52" class="key ghost"/>
</g>
<g transform="translate(570, 143)" class="key ghost keypos-24">
<rect rx="6" ry="6" x="-28" y="-26" width="55" height="52" class="key ghost"/>
</g>
<g transform="translate(631, 161) rotate(3.0)" class="key ghost keypos-25">
<rect rx="6" ry="6" x="-28" y="-26" width="55" height="52" class="key ghost"/>
</g>
<g transform="translate(237, 230)" class="key trans keypos-26">
<rect rx="6" ry="6" x="-28" y="-26" width="55" height="52" class="key trans"/>
</g>
<g transform="translate(298, 245)" class="key keypos-27">
<rect rx="6" ry="6" x="-28" y="-26" width="55" height="52" class="key"/>
<text x="0" y="0" class="key tap">
<tspan x="0" dy="-0.6em">&amp;lt</tspan><tspan x="0" dy="1.2em">SPACE</tspan>
</text>
</g>
<g transform="translate(433, 245)" class="key keypos-28">
<rect rx="6" ry="6" x="-28" y="-26" width="55" height="52" class="key"/>
<text x="0" y="0" class="key tap">0</text>
<text x="0" y="-24" class="key shifted">`</text>
</g>
<g transform="translate(494, 230)" class="key keypos-29">
<rect rx="6" ry="6" x="-28" y="-26" width="55" height="52" class="key"/>
<text x="0" y="0" class="key tap">9</text>
<text x="0" y="-24" class="key shifted">^</text>
</g>
<g class="combo combopos-0">
<rect rx="6" ry="6" x="526" y="22" width="28" height="26" class="combo"/>
<text x="540" y="35" class="combo tap">=</text>
</g>
<g class="combo combopos-1">
<rect rx="6" ry="6" x="590" y="24" width="28" height="26" class="combo"/>
<text x="604" y="37" class="combo tap">,</text>
</g>
<g class="combo combopos-2">
<rect rx="6" ry="6" x="655" y="56" width="28" height="26" class="combo"/>
<text x="669" y="69" class="combo tap">.</text>
</g>
<g class="combo combopos-3">
<rect rx="6" ry="6" x="526" y="80" width="28" height="26" class="combo"/>
<text x="540" y="93" class="combo tap">@</text>
</g>
<g class="combo combopos-4">
<path d="M267,184 h-24 a6.0,6.0 0 0 0 -6.0,6.0 v21" class="combo"/>
<path d="M267,184 h24 a6.0,6.0 0 0 1 6.0,6.0 v36" class="combo"/>
<rect rx="6" ry="6" x="222" y="171" width="90" height="26" class="combo"/>
<text x="267" y="184" class="combo tap">Screenshot</text>
</g>
<g class="combo combopos-5">
<rect rx="6" ry="6" x="20" y="109" width="28" height="26" class="combo"/>
<text x="34" y="122" class="combo tap">&lt;</text>
</g>
<g class="combo combopos-6">
<rect rx="6" ry="6" x="82" y="62" width="28" height="26" class="combo"/>
<text x="96" y="75" class="combo tap">[</text>
</g>
<g class="combo combopos-7">
<rect rx="6" ry="6" x="147" y="44" width="28" height="26" class="combo"/>
<text x="161" y="57" class="combo tap">{</text>
</g>
<g class="combo combopos-8">
<rect rx="6" ry="6" x="208" y="58" width="28" height="26" class="combo"/>
<text x="222" y="71" class="combo tap">(</text>
</g>
<g class="combo combopos-9">
<rect rx="6" ry="6" x="496" y="58" width="28" height="26" class="combo"/>
<text x="510" y="71" class="combo tap">)</text>
</g>
<g class="combo combopos-10">
<rect rx="6" ry="6" x="556" y="44" width="28" height="26" class="combo"/>
<text x="570" y="57" class="combo tap">}</text>
</g>
<g class="combo combopos-11">
<rect rx="6" ry="6" x="621" y="62" width="28" height="26" class="combo"/>
<text x="635" y="75" class="combo tap">]</text>
</g>
<g class="combo combopos-12">
<rect rx="6" ry="6" x="684" y="109" width="28" height="26" class="combo"/>
<text x="698" y="122" class="combo tap">&gt;</text>
</g>
<g class="combo combopos-13">
<rect rx="6" ry="6" x="54" y="114" width="28" height="26" class="combo"/>
<text x="68" y="127" class="combo tap">€</text>
</g>
<g class="combo combopos-14">
<rect rx="6" ry="6" x="115" y="81" width="28" height="26" class="combo"/>
<text x="129" y="94" class="combo tap">$</text>
</g>
<g class="combo combopos-15">
<rect rx="6" ry="6" x="177" y="80" width="28" height="26" class="combo"/>
<text x="191" y="93" class="combo tap">£</text>
</g>
<g class="combo combopos-16">
<rect rx="6" ry="6" x="588" y="81" width="28" height="26" class="combo"/>
<text x="602" y="94" class="combo tap">|</text>
</g>
<g class="combo combopos-17">
<rect rx="6" ry="6" x="650" y="114" width="28" height="26" class="combo"/>
<text x="664" y="127" class="combo tap">~</text>
</g>
</g>
</g>
<g transform="translate(30, 657)" class="layer-sym">
<text x="0" y="28" class="label">sym:</text>
<g transform="translate(0, 56)">
<g transform="translate(30, 93) rotate(-8.0)" class="key keypos-0">
<rect rx="6" ry="6" x="-28" y="-26" width="55" height="52" class="key"/>
<text x="0" y="0" class="key tap">\</text>
</g>
<g transform="translate(95, 46) rotate(-3.0)" class="key keypos-1">
<rect rx="6" ry="6" x="-28" y="-26" width="55" height="52" class="key"/>
<text x="0" y="0" class="key tap">#</text>
</g>
<g transform="translate(161, 28)" class="key keypos-2">
<rect rx="6" ry="6" x="-28" y="-26" width="55" height="52" class="key"/>
<text x="0" y="0" class="key tap">&amp;</text>
</g>
<g transform="translate(222, 42)" class="key keypos-3">
<rect rx="6" ry="6" x="-28" y="-26" width="55" height="52" class="key"/>
<text x="0" y="0" class="key tap">_</text>
</g>
<g transform="translate(283, 71)" class="key ghost keypos-4">
<rect rx="6" ry="6" x="-28" y="-26" width="55" height="52" class="key ghost"/>
</g>
<g transform="translate(449, 71)" class="key ghost keypos-5">
<rect rx="6" ry="6" x="-28" y="-26" width="55" height="52" class="key ghost"/>
</g>
<g transform="translate(510, 42)" class="key keypos-6">
<rect rx="6" ry="6" x="-28" y="-26" width="55" height="52" class="key"/>
<text x="0" y="0" class="key tap">%</text>
</g>
<g transform="translate(570, 28)" class="key keypos-7">
<rect rx="6" ry="6" x="-28" y="-26" width="55" height="52" class="key"/>
<text x="0" y="0" class="key tap">;</text>
</g>
<g transform="translate(637, 46) rotate(3.0)" class="key keypos-8">
<rect rx="6" ry="6" x="-28" y="-26" width="55" height="52" class="key"/>
<text x="0" y="0" class="key tap">?</text>
</g>
<g transform="translate(702, 93) rotate(8.0)" class="key keypos-9">
<rect rx="6" ry="6" x="-28" y="-26" width="55" height="52" class="key"/>
<text x="0" y="0" class="key tap">&quot;</text>
</g>
<g transform="translate(38, 150) rotate(-8.0)" class="key keypos-10">
<rect rx="6" ry="6" x="-28" y="-26" width="55" height="52" class="key"/>
<text x="0" y="0" class="key tap">/</text>
</g>
<g transform="translate(98, 103) rotate(-3.0)" class="key keypos-11">
<rect rx="6" ry="6" x="-28" y="-26" width="55" height="52" class="key"/>
<text x="0" y="0" class="key tap">*</text>
</g>
<g transform="translate(161, 86)" class="key keypos-12">
<rect rx="6" ry="6" x="-28" y="-26" width="55" height="52" class="key"/>
<text x="0" y="0" class="key tap">+</text>
</g>
<g transform="translate(222, 100)" class="key keypos-13">
<rect rx="6" ry="6" x="-28" y="-26" width="55" height="52" class="key"/>
<text x="0" y="0" class="key tap">-</text>
</g>
<g transform="translate(283, 129)" class="key ghost keypos-14">
<rect rx="6" ry="6" x="-28" y="-26" width="55" height="52" class="key ghost"/>
</g>
<g transform="translate(449, 129)" class="key ghost keypos-15">
<rect rx="6" ry="6" x="-28" y="-26" width="55" height="52" class="key ghost"/>
</g>
<g transform="translate(510, 100)" class="key keypos-16">
<rect rx="6" ry="6" x="-28" y="-26" width="55" height="52" class="key"/>
<text x="0" y="0" class="key tap">```</text>
</g>
<g transform="translate(570, 86)" class="key keypos-17">
<rect rx="6" ry="6" x="-28" y="-26" width="55" height="52" class="key"/>
<text x="0" y="0" class="key tap">:</text>
</g>
<g transform="translate(634, 103) rotate(3.0)" class="key keypos-18">
<rect rx="6" ry="6" x="-28" y="-26" width="55" height="52" class="key"/>
<text x="0" y="0" class="key tap">!</text>
</g>
<g transform="translate(694, 150) rotate(8.0)" class="key keypos-19">
<rect rx="6" ry="6" x="-28" y="-26" width="55" height="52" class="key"/>
<text x="0" y="0" class="key tap">&#x27;</text>
</g>
<g transform="translate(101, 161) rotate(-3.0)" class="key ghost keypos-20">
<rect rx="6" ry="6" x="-28" y="-26" width="55" height="52" class="key ghost"/>
</g>
<g transform="translate(161, 143)" class="key ghost keypos-21">
<rect rx="6" ry="6" x="-28" y="-26" width="55" height="52" class="key ghost"/>
</g>
<g transform="translate(222, 158)" class="key ghost keypos-22">
<rect rx="6" ry="6" x="-28" y="-26" width="55" height="52" class="key ghost"/>
</g>
<g transform="translate(510, 158)" class="key ghost keypos-23">
<rect rx="6" ry="6" x="-28" y="-26" width="55" height="52" class="key ghost"/>
</g>
<g transform="translate(570, 143)" class="key ghost keypos-24">
<rect rx="6" ry="6" x="-28" y="-26" width="55" height="52" class="key ghost"/>
</g>
<g transform="translate(631, 161) rotate(3.0)" class="key ghost keypos-25">
<rect rx="6" ry="6" x="-28" y="-26" width="55" height="52" class="key ghost"/>
</g>
<g transform="translate(237, 230)" class="key trans keypos-26">
<rect rx="6" ry="6" x="-28" y="-26" width="55" height="52" class="key trans"/>
</g>
<g transform="translate(298, 245)" class="key trans keypos-27">
<rect rx="6" ry="6" x="-28" y="-26" width="55" height="52" class="key trans"/>
</g>
<g transform="translate(433, 245)" class="key held keypos-28">
<rect rx="6" ry="6" x="-28" y="-26" width="55" height="52" class="key held"/>
</g>
<g transform="translate(494, 230)" class="key trans keypos-29">
<rect rx="6" ry="6" x="-28" y="-26" width="55" height="52" class="key trans"/>
</g>
<g class="combo combopos-0">
<rect rx="6" ry="6" x="526" y="22" width="28" height="26" class="combo"/>
<text x="540" y="35" class="combo tap">=</text>
</g>
<g class="combo combopos-1">
<rect rx="6" ry="6" x="590" y="24" width="28" height="26" class="combo"/>
<text x="604" y="37" class="combo tap">,</text>
</g>
<g class="combo combopos-2">
<rect rx="6" ry="6" x="655" y="56" width="28" height="26" class="combo"/>
<text x="669" y="69" class="combo tap">.</text>
</g>
<g class="combo combopos-3">
<rect rx="6" ry="6" x="526" y="80" width="28" height="26" class="combo"/>
<text x="540" y="93" class="combo tap">@</text>
</g>
<g class="combo combopos-4">
<path d="M267,184 h-24 a6.0,6.0 0 0 0 -6.0,6.0 v21" class="combo"/>
<path d="M267,184 h24 a6.0,6.0 0 0 1 6.0,6.0 v36" class="combo"/>
<rect rx="6" ry="6" x="222" y="171" width="90" height="26" class="combo"/>
<text x="267" y="184" class="combo tap">Screenshot</text>
</g>
<g class="combo combopos-5">
<rect rx="6" ry="6" x="20" y="109" width="28" height="26" class="combo"/>
<text x="34" y="122" class="combo tap">&lt;</text>
</g>
<g class="combo combopos-6">
<rect rx="6" ry="6" x="82" y="62" width="28" height="26" class="combo"/>
<text x="96" y="75" class="combo tap">[</text>
</g>
<g class="combo combopos-7">
<rect rx="6" ry="6" x="147" y="44" width="28" height="26" class="combo"/>
<text x="161" y="57" class="combo tap">{</text>
</g>
<g class="combo combopos-8">
<rect rx="6" ry="6" x="208" y="58" width="28" height="26" class="combo"/>
<text x="222" y="71" class="combo tap">(</text>
</g>
<g class="combo combopos-9">
<rect rx="6" ry="6" x="496" y="58" width="28" height="26" class="combo"/>
<text x="510" y="71" class="combo tap">)</text>
</g>
<g class="combo combopos-10">
<rect rx="6" ry="6" x="556" y="44" width="28" height="26" class="combo"/>
<text x="570" y="57" class="combo tap">}</text>
</g>
<g class="combo combopos-11">
<rect rx="6" ry="6" x="621" y="62" width="28" height="26" class="combo"/>
<text x="635" y="75" class="combo tap">]</text>
</g>
<g class="combo combopos-12">
<rect rx="6" ry="6" x="684" y="109" width="28" height="26" class="combo"/>
<text x="698" y="122" class="combo tap">&gt;</text>
</g>
<g class="combo combopos-13">
<rect rx="6" ry="6" x="54" y="114" width="28" height="26" class="combo"/>
<text x="68" y="127" class="combo tap">€</text>
</g>
<g class="combo combopos-14">
<rect rx="6" ry="6" x="115" y="81" width="28" height="26" class="combo"/>
<text x="129" y="94" class="combo tap">$</text>
</g>
<g class="combo combopos-15">
<rect rx="6" ry="6" x="177" y="80" width="28" height="26" class="combo"/>
<text x="191" y="93" class="combo tap">£</text>
</g>
<g class="combo combopos-16">
<rect rx="6" ry="6" x="588" y="81" width="28" height="26" class="combo"/>
<text x="602" y="94" class="combo tap">|</text>
</g>
<g class="combo combopos-17">
<rect rx="6" ry="6" x="650" y="114" width="28" height="26" class="combo"/>
<text x="664" y="127" class="combo tap">~</text>
</g>
</g>
</g>
</svg>
