<svg width="815" height="923" viewBox="0 0 815 923" class="keymap" xmlns="http://www.w3.org/2000/svg" xmlns:xlink="http://www.w3.org/1999/xlink">
<style>/* inherit t  o force styles through use tags */
svg path {
    fill: inherit;
}

/* font and background color specifications */
svg.keymap {
    font-family: SFMono-Regular,Consolas,Liberation Mono,Menlo,monospace;
    font-size: 14px;
    font-kerning: normal;
    text-rendering: optimizeLegibility;
    fill: #24292e;
}

/* default key styling */
rect.key {
    fill: #f6f8fa;
    stroke: #c9cccf;
    stroke-width: 1;
}

/* default key side styling, only used is draw_key_sides is set */
rect.side {
    filter: brightness(90%);
}

/* color accent for combo boxes */
rect.combo, rect.combo-separate {
    fill: #cdf;
}

/* color accent for held keys */
rect.held, rect.combo.held {
    fill: #fdd;
}

/* color accent for ghost (optional) keys */
rect.ghost, rect.combo.ghost {
    stroke-dasharray: 4, 4;
    stroke-width: 2;
}

text {
    text-anchor: middle;
    dominant-baseline: middle;
}

/* styling for layer labels */
text.label {
    font-weight: bold;
    text-anchor: start;
    stroke: white;
    stroke-width: 2;
    paint-order: stroke;
}

/* styling for combo tap, and key hold/shifted label text */
text.combo, text.hold, text.shifted {
    font-size: 11px;
}

text.hold {
    text-anchor: middle;
    dominant-baseline: auto;
}

text.shifted {
    text-anchor: middle;
    dominant-baseline: hanging;
}

/* styling for hold/shifted label text in combo box */
text.combo.hold, text.combo.shifted {
    font-size: 8px;
}

/* lighter symbol for transparent keys */
text.trans {
    fill: #7b7e81;
}

/* styling for combo dendrons */
path.combo {
    stroke-width: 1;
    stroke: gray;
    fill: none;
}

/* Start Tabler Icons Cleanup */
/* cannot use height/width with glyphs */
.icon-tabler > path {
    fill: inherit;
    stroke: inherit;
    stroke-width: 2;
}
/* hide tabler's default box */
.icon-tabler > path[stroke="none"][fill="none"] {
    visibility: hidden;
}
/* End Tabler Icons Cleanup */
</style>
<g transform="translate(30, 0)" class="layer-NUM">
<text x="0" y="28" class="label">NUM:</text>
<g transform="translate(0, 56)">
<g transform="translate(30, 93) rotate(-8.0)" class="key trans keypos-0">
<rect rx="6" ry="6" x="-28" y="-26" width="55" height="52" class="key trans"/>
</g>
<g transform="translate(95, 46) rotate(-3.0)" class="key keypos-1">
<rect rx="6" ry="6" x="-28" y="-26" width="55" height="52" class="key"/>
<text x="0" y="0" class="key tap">7</text>
</g>
<g transform="translate(161, 28)" class="key keypos-2">
<rect rx="6" ry="6" x="-28" y="-26" width="55" height="52" class="key"/>
<text x="0" y="0" class="key tap">8</text>
</g>
<g transform="translate(222, 42)" class="key keypos-3">
<rect rx="6" ry="6" x="-28" y="-26" width="55" height="52" class="key"/>
<text x="0" y="0" class="key tap">9</text>
</g>
<g transform="translate(283, 71)" class="key trans keypos-4">
<rect rx="6" ry="6" x="-28" y="-26" width="55" height="52" class="key trans"/>
</g>
<g transform="translate(449, 71)" class="key trans keypos-5">
<rect rx="6" ry="6" x="-28" y="-26" width="55" height="52" class="key trans"/>
</g>
<g transform="translate(510, 42)" class="key trans keypos-6">
<rect rx="6" ry="6" x="-28" y="-26" width="55" height="52" class="key trans"/>
</g>
<g transform="translate(570, 28)" class="key trans keypos-7">
<rect rx="6" ry="6" x="-28" y="-26" width="55" height="52" class="key trans"/>
</g>
<g transform="translate(637, 46) rotate(3.0)" class="key trans keypos-8">
<rect rx="6" ry="6" x="-28" y="-26" width="55" height="52" class="key trans"/>
</g>
<g transform="translate(702, 93) rotate(8.0)" class="key trans keypos-9">
<rect rx="6" ry="6" x="-28" y="-26" width="55" height="52" class="key trans"/>
</g>
<g transform="translate(38, 150) rotate(-8.0)" class="key keypos-10">
<rect rx="6" ry="6" x="-28" y="-26" width="55" height="52" class="key"/>
<text x="0" y="0" class="key tap">11</text>
</g>
<g transform="translate(98, 103) rotate(-3.0)" class="key keypos-11">
<rect rx="6" ry="6" x="-28" y="-26" width="55" height="52" class="key"/>
<text x="0" y="0" class="key tap">1</text>
</g>
<g transform="translate(161, 86)" class="key keypos-12">
<rect rx="6" ry="6" x="-28" y="-26" width="55" height="52" class="key"/>
<text x="0" y="0" class="key tap">2</text>
</g>
<g transform="translate(222, 100)" class="key keypos-13">
<rect rx="6" ry="6" x="-28" y="-26" width="55" height="52" class="key"/>
<text x="0" y="0" class="key tap">3</text>
</g>
<g transform="translate(283, 129)" class="key keypos-14">
<rect rx="6" ry="6" x="-28" y="-26" width="55" height="52" class="key"/>
<text x="0" y="0" class="key tap">12</text>
</g>
<g transform="translate(449, 129)" class="key trans keypos-15">
<rect rx="6" ry="6" x="-28" y="-26" width="55" height="52" class="key trans"/>
</g>
<g transform="translate(510, 100)" class="key trans keypos-16">
<rect rx="6" ry="6" x="-28" y="-26" width="55" height="52" class="key trans"/>
</g>
<g transform="translate(570, 86)" class="key trans keypos-17">
<rect rx="6" ry="6" x="-28" y="-26" width="55" height="52" class="key trans"/>
</g>
<g transform="translate(634, 103) rotate(3.0)" class="key trans keypos-18">
<rect rx="6" ry="6" x="-28" y="-26" width="55" height="52" class="key trans"/>
</g>
<g transform="translate(694, 150) rotate(8.0)" class="key trans keypos-19">
<rect rx="6" ry="6" x="-28" y="-26" width="55" height="52" class="key trans"/>
</g>
<g transform="translate(101, 161) rotate(-3.0)" class="key keypos-20">
<rect rx="6" ry="6" x="-28" y="-26" width="55" height="52" class="key"/>
<text x="0" y="0" class="key tap">4</text>
</g>
<g transform="translate(161, 143)" class="key keypos-21">
<rect rx="6" ry="6" x="-28" y="-26" width="55" height="52" class="key"/>
<text x="0" y="0" class="key tap">5</text>
</g>
<g transform="translate(222, 158)" class="key keypos-22">
<rect rx="6" ry="6" x="-28" y="-26" width="55" height="52" class="key"/>
<text x="0" y="0" class="key tap">6</text>
</g>
<g transform="translate(510, 158)" class="key trans keypos-23">
<rect rx="6" ry="6" x="-28" y="-26" width="55" height="52" class="key trans"/>
</g>
<g transform="translate(570, 143)" class="key trans keypos-24">
<rect rx="6" ry="6" x="-28" y="-26" width="55" height="52" class="key trans"/>
</g>
<g transform="translate(631, 161) rotate(3.0)" class="key trans keypos-25">
<rect rx="6" ry="6" x="-28" y="-26" width="55" height="52" class="key trans"/>
</g>
<g transform="translate(237, 230)" class="key keypos-26">
<rect rx="6" ry="6" x="-28" y="-26" width="55" height="52" class="key"/>
<text x="0" y="0" class="key tap">0</text>
</g>
<g transform="translate(298, 245)" class="key trans keypos-27">
<rect rx="6" ry="6" x="-28" y="-26" width="55" height="52" class="key trans"/>
</g>
<g transform="translate(433, 245)" class="key trans keypos-28">
<rect rx="6" ry="6" x="-28" y="-26" width="55" height="52" class="key trans"/>
</g>
<g transform="translate(494, 230)" class="key trans keypos-29">
<rect rx="6" ry="6" x="-28" y="-26" width="55" height="52" class="key trans"/>
</g>
</g>
</g>
<text x="30" y="357" class="label">Combos:</text>
<g transform="translate(30, 329)" class="layer-combopos-0">
<g transform="translate(0, 56)">
<g transform="translate(30, 28)" class="key  combo-separate keypos-0">
<rect rx="6" ry="6" x="-28" y="-26" width="55" height="52" class="key  combo-separate"/>
<text x="0" y="0" class="key  combo-separate tap">Monday</text>
</g>
<g transform="translate(10, 89) rotate(-8.0)" class="key keypos-1">
<rect rx="6" ry="6" x="-8" y="-7" width="16" height="15" class="key"/>
</g>
<g transform="translate(32, 73) rotate(-3.0)" class="key keypos-2">
<rect rx="6" ry="6" x="-8" y="-7" width="16" height="15" class="key"/>
</g>
<g transform="translate(54, 67)" class="key keypos-3">
<rect rx="6" ry="6" x="-8" y="-7" width="16" height="15" class="key"/>
</g>
<g transform="translate(74, 72)" class="key keypos-4">
<rect rx="6" ry="6" x="-8" y="-7" width="16" height="15" class="key"/>
</g>
<g transform="translate(94, 82)" class="key keypos-5">
<rect rx="6" ry="6" x="-8" y="-7" width="16" height="15" class="key"/>
</g>
<g transform="translate(150, 82)" class="key keypos-6">
<rect rx="6" ry="6" x="-8" y="-7" width="16" height="15" class="key"/>
</g>
<g transform="translate(170, 72)" class="key keypos-7">
<rect rx="6" ry="6" x="-8" y="-7" width="16" height="15" class="key"/>
</g>
<g transform="translate(190, 67)" class="key keypos-8">
<rect rx="6" ry="6" x="-8" y="-7" width="16" height="15" class="key"/>
</g>
<g transform="translate(212, 73) rotate(3.0)" class="key keypos-9">
<rect rx="6" ry="6" x="-8" y="-7" width="16" height="15" class="key"/>
</g>
<g transform="translate(234, 89) rotate(8.0)" class="key keypos-10">
<rect rx="6" ry="6" x="-8" y="-7" width="16" height="15" class="key"/>
</g>
<g transform="translate(13, 108) rotate(-8.0)" class="key keypos-11">
<rect rx="6" ry="6" x="-8" y="-7" width="16" height="15" class="key"/>
</g>
<g transform="translate(33, 92) rotate(-3.0)" class="key held keypos-12">
<rect rx="6" ry="6" x="-8" y="-7" width="16" height="15" class="key held"/>
</g>
<g transform="translate(54, 87)" class="key keypos-13">
<rect rx="6" ry="6" x="-8" y="-7" width="16" height="15" class="key"/>
</g>
<g transform="translate(74, 91)" class="key keypos-14">
<rect rx="6" ry="6" x="-8" y="-7" width="16" height="15" class="key"/>
</g>
<g transform="translate(94, 101)" class="key keypos-15">
<rect rx="6" ry="6" x="-8" y="-7" width="16" height="15" class="key"/>
</g>
<g transform="translate(150, 101)" class="key keypos-16">
<rect rx="6" ry="6" x="-8" y="-7" width="16" height="15" class="key"/>
</g>
<g transform="translate(170, 91)" class="key keypos-17">
<rect rx="6" ry="6" x="-8" y="-7" width="16" height="15" class="key"/>
</g>
<g transform="translate(190, 87)" class="key keypos-18">
<rect rx="6" ry="6" x="-8" y="-7" width="16" height="15" class="key"/>
</g>
<g transform="translate(211, 92) rotate(3.0)" class="key keypos-19">
<rect rx="6" ry="6" x="-8" y="-7" width="16" height="15" class="key"/>
</g>
<g transform="translate(231, 108) rotate(8.0)" class="key keypos-20">
<rect rx="6" ry="6" x="-8" y="-7" width="16" height="15" class="key"/>
</g>
<g transform="translate(34, 112) rotate(-3.0)" class="key keypos-21">
<rect rx="6" ry="6" x="-8" y="-7" width="16" height="15" class="key"/>
</g>
<g transform="translate(54, 106)" class="key keypos-22">
<rect rx="6" ry="6" x="-8" y="-7" width="16" height="15" class="key"/>
</g>
<g transform="translate(74, 111)" class="key keypos-23">
<rect rx="6" ry="6" x="-8" y="-7" width="16" height="15" class="key"/>
</g>
<g transform="translate(170, 111)" class="key keypos-24">
<rect rx="6" ry="6" x="-8" y="-7" width="16" height="15" class="key"/>
</g>
<g transform="translate(190, 106)" class="key keypos-25">
<rect rx="6" ry="6" x="-8" y="-7" width="16" height="15" class="key"/>
</g>
<g transform="translate(210, 112) rotate(3.0)" class="key keypos-26">
<rect rx="6" ry="6" x="-8" y="-7" width="16" height="15" class="key"/>
</g>
<g transform="translate(79, 135)" class="key keypos-27">
<rect rx="6" ry="6" x="-8" y="-7" width="16" height="15" class="key"/>
</g>
<g transform="translate(99, 140)" class="key keypos-28">
<rect rx="6" ry="6" x="-8" y="-7" width="16" height="15" class="key"/>
</g>
<g transform="translate(144, 140)" class="key held keypos-29">
<rect rx="6" ry="6" x="-8" y="-7" width="16" height="15" class="key held"/>
</g>
<g transform="translate(165, 135)" class="key keypos-30">
<rect rx="6" ry="6" x="-8" y="-7" width="16" height="15" class="key"/>
</g>
</g>
</g>
<g transform="translate(295, 329)" class="layer-combopos-1">
<g transform="translate(0, 56)">
<g transform="translate(30, 28)" class="key  combo-separate keypos-0">
<rect rx="6" ry="6" x="-28" y="-26" width="55" height="52" class="key  combo-separate"/>
<text x="0" y="0" class="key  combo-separate tap">Tuesday</text>
</g>
<g transform="translate(10, 89) rotate(-8.0)" class="key keypos-1">
<rect rx="6" ry="6" x="-8" y="-7" width="16" height="15" class="key"/>
</g>
<g transform="translate(32, 73) rotate(-3.0)" class="key keypos-2">
<rect rx="6" ry="6" x="-8" y="-7" width="16" height="15" class="key"/>
</g>
<g transform="translate(54, 67)" class="key keypos-3">
<rect rx="6" ry="6" x="-8" y="-7" width="16" height="15" class="key"/>
</g>
<g transform="translate(74, 72)" class="key keypos-4">
<rect rx="6" ry="6" x="-8" y="-7" width="16" height="15" class="key"/>
</g>
<g transform="translate(94, 82)" class="key keypos-5">
<rect rx="6" ry="6" x="-8" y="-7" width="16" height="15" class="key"/>
</g>
<g transform="translate(150, 82)" class="key keypos-6">
<rect rx="6" ry="6" x="-8" y="-7" width="16" height="15" class="key"/>
</g>
<g transform="translate(170, 72)" class="key keypos-7">
<rect rx="6" ry="6" x="-8" y="-7" width="16" height="15" class="key"/>
</g>
<g transform="translate(190, 67)" class="key keypos-8">
<rect rx="6" ry="6" x="-8" y="-7" width="16" height="15" class="key"/>
</g>
<g transform="translate(212, 73) rotate(3.0)" class="key keypos-9">
<rect rx="6" ry="6" x="-8" y="-7" width="16" height="15" class="key"/>
</g>
<g transform="translate(234, 89) rotate(8.0)" class="key keypos-10">
<rect rx="6" ry="6" x="-8" y="-7" width="16" height="15" class="key"/>
</g>
<g transform="translate(13, 108) rotate(-8.0)" class="key keypos-11">
<rect rx="6" ry="6" x="-8" y="-7" width="16" height="15" class="key"/>
</g>
<g transform="translate(33, 92) rotate(-3.0)" class="key keypos-12">
<rect rx="6" ry="6" x="-8" y="-7" width="16" height="15" class="key"/>
</g>
<g transform="translate(54, 87)" class="key held keypos-13">
<rect rx="6" ry="6" x="-8" y="-7" width="16" height="15" class="key held"/>
</g>
<g transform="translate(74, 91)" class="key keypos-14">
<rect rx="6" ry="6" x="-8" y="-7" width="16" height="15" class="key"/>
</g>
<g transform="translate(94, 101)" class="key keypos-15">
<rect rx="6" ry="6" x="-8" y="-7" width="16" height="15" class="key"/>
</g>
<g transform="translate(150, 101)" class="key keypos-16">
<rect rx="6" ry="6" x="-8" y="-7" width="16" height="15" class="key"/>
</g>
<g transform="translate(170, 91)" class="key keypos-17">
<rect rx="6" ry="6" x="-8" y="-7" width="16" height="15" class="key"/>
</g>
<g transform="translate(190, 87)" class="key keypos-18">
<rect rx="6" ry="6" x="-8" y="-7" width="16" height="15" class="key"/>
</g>
<g transform="translate(211, 92) rotate(3.0)" class="key keypos-19">
<rect rx="6" ry="6" x="-8" y="-7" width="16" height="15" class="key"/>
</g>
<g transform="translate(231, 108) rotate(8.0)" class="key keypos-20">
<rect rx="6" ry="6" x="-8" y="-7" width="16" height="15" class="key"/>
</g>
<g transform="translate(34, 112) rotate(-3.0)" class="key keypos-21">
<rect rx="6" ry="6" x="-8" y="-7" width="16" height="15" class="key"/>
</g>
<g transform="translate(54, 106)" class="key keypos-22">
<rect rx="6" ry="6" x="-8" y="-7" width="16" height="15" class="key"/>
</g>
<g transform="translate(74, 111)" class="key keypos-23">
<rect rx="6" ry="6" x="-8" y="-7" width="16" height="15" class="key"/>
</g>
<g transform="translate(170, 111)" class="key keypos-24">
<rect rx="6" ry="6" x="-8" y="-7" width="16" height="15" class="key"/>
</g>
<g transform="translate(190, 106)" class="key keypos-25">
<rect rx="6" ry="6" x="-8" y="-7" width="16" height="15" class="key"/>
</g>
<g transform="translate(210, 112) rotate(3.0)" class="key keypos-26">
<rect rx="6" ry="6" x="-8" y="-7" width="16" height="15" class="key"/>
</g>
<g transform="translate(79, 135)" class="key keypos-27">
<rect rx="6" ry="6" x="-8" y="-7" width="16" height="15" class="key"/>
</g>
<g transform="translate(99, 140)" class="key keypos-28">
<rect rx="6" ry="6" x="-8" y="-7" width="16" height="15" class="key"/>
</g>
<g transform="translate(144, 140)" class="key held keypos-29">
<rect rx="6" ry="6" x="-8" y="-7" width="16" height="15" class="key held"/>
</g>
<g transform="translate(165, 135)" class="key keypos-30">
<rect rx="6" ry="6" x="-8" y="-7" width="16" height="15" class="key"/>
</g>
</g>
</g>
<g transform="translate(560, 329)" class="layer-combopos-2">
<g transform="translate(0, 56)">
<g transform="translate(30, 28)" class="key  combo-separate keypos-0">
<rect rx="6" ry="6" x="-28" y="-26" width="55" height="52" class="key  combo-separate"/>
<text x="0" y="0" class="key  combo-separate tap"><tspan style="font-size: 60%">&amp;macro_Wednesday</tspan></text>
</g>
<g transform="translate(10, 89) rotate(-8.0)" class="key keypos-1">
<rect rx="6" ry="6" x="-8" y="-7" width="16" height="15" class="key"/>
</g>
<g transform="translate(32, 73) rotate(-3.0)" class="key keypos-2">
<rect rx="6" ry="6" x="-8" y="-7" width="16" height="15" class="key"/>
</g>
<g transform="translate(54, 67)" class="key keypos-3">
<rect rx="6" ry="6" x="-8" y="-7" width="16" height="15" class="key"/>
</g>
<g transform="translate(74, 72)" class="key keypos-4">
<rect rx="6" ry="6" x="-8" y="-7" width="16" height="15" class="key"/>
</g>
<g transform="translate(94, 82)" class="key keypos-5">
<rect rx="6" ry="6" x="-8" y="-7" width="16" height="15" class="key"/>
</g>
<g transform="translate(150, 82)" class="key keypos-6">
<rect rx="6" ry="6" x="-8" y="-7" width="16" height="15" class="key"/>
</g>
<g transform="translate(170, 72)" class="key keypos-7">
<rect rx="6" ry="6" x="-8" y="-7" width="16" height="15" class="key"/>
</g>
<g transform="translate(190, 67)" class="key keypos-8">
<rect rx="6" ry="6" x="-8" y="-7" width="16" height="15" class="key"/>
</g>
<g transform="translate(212, 73) rotate(3.0)" class="key keypos-9">
<rect rx="6" ry="6" x="-8" y="-7" width="16" height="15" class="key"/>
</g>
<g transform="translate(234, 89) rotate(8.0)" class="key keypos-10">
<rect rx="6" ry="6" x="-8" y="-7" width="16" height="15" class="key"/>
</g>
<g transform="translate(13, 108) rotate(-8.0)" class="key keypos-11">
<rect rx="6" ry="6" x="-8" y="-7" width="16" height="15" class="key"/>
</g>
<g transform="translate(33, 92) rotate(-3.0)" class="key keypos-12">
<rect rx="6" ry="6" x="-8" y="-7" width="16" height="15" class="key"/>
</g>
<g transform="translate(54, 87)" class="key keypos-13">
<rect rx="6" ry="6" x="-8" y="-7" width="16" height="15" class="key"/>
</g>
<g transform="translate(74, 91)" class="key held keypos-14">
<rect rx="6" ry="6" x="-8" y="-7" width="16" height="15" class="key held"/>
</g>
<g transform="translate(94, 101)" class="key keypos-15">
<rect rx="6" ry="6" x="-8" y="-7" width="16" height="15" class="key"/>
</g>
<g transform="translate(150, 101)" class="key keypos-16">
<rect rx="6" ry="6" x="-8" y="-7" width="16" height="15" class="key"/>
</g>
<g transform="translate(170, 91)" class="key keypos-17">
<rect rx="6" ry="6" x="-8" y="-7" width="16" height="15" class="key"/>
</g>
<g transform="translate(190, 87)" class="key keypos-18">
<rect rx="6" ry="6" x="-8" y="-7" width="16" height="15" class="key"/>
</g>
<g transform="translate(211, 92) rotate(3.0)" class="key keypos-19">
<rect rx="6" ry="6" x="-8" y="-7" width="16" height="15" class="key"/>
</g>
<g transform="translate(231, 108) rotate(8.0)" class="key keypos-20">
<rect rx="6" ry="6" x="-8" y="-7" width="16" height="15" class="key"/>
</g>
<g transform="translate(34, 112) rotate(-3.0)" class="key keypos-21">
<rect rx="6" ry="6" x="-8" y="-7" width="16" height="15" class="key"/>
</g>
<g transform="translate(54, 106)" class="key keypos-22">
<rect rx="6" ry="6" x="-8" y="-7" width="16" height="15" class="key"/>
</g>
<g transform="translate(74, 111)" class="key keypos-23">
<rect rx="6" ry="6" x="-8" y="-7" width="16" height="15" class="key"/>
</g>
<g transform="translate(170, 111)" class="key keypos-24">
<rect rx="6" ry="6" x="-8" y="-7" width="16" height="15" class="key"/>
</g>
<g transform="translate(190, 106)" class="key keypos-25">
<rect rx="6" ry="6" x="-8" y="-7" width="16" height="15" class="key"/>
</g>
<g transform="translate(210, 112) rotate(3.0)" class="key keypos-26">
<rect rx="6" ry="6" x="-8" y="-7" width="16" height="15" class="key"/>
</g>
<g transform="translate(79, 135)" class="key keypos-27">
<rect rx="6" ry="6" x="-8" y="-7" width="16" height="15" class="key"/>
</g>
<g transform="translate(99, 140)" class="key keypos-28">
<rect rx="6" ry="6" x="-8" y="-7" width="16" height="15" class="key"/>
</g>
<g transform="translate(144, 140)" class="key held keypos-29">
<rect rx="6" ry="6" x="-8" y="-7" width="16" height="15" class="key held"/>
</g>
<g transform="translate(165, 135)" class="key keypos-30">
<rect rx="6" ry="6" x="-8" y="-7" width="16" height="15" class="key"/>
</g>
</g>
</g>
<g transform="translate(30, 533)" class="layer-combopos-3">
<g transform="translate(0, 18)">
<g transform="translate(30, 28)" class="key  combo-separate keypos-0">
<rect rx="6" ry="6" x="-28" y="-26" width="55" height="52" class="key  combo-separate"/>
<text x="0" y="0" class="key  combo-separate tap"><tspan style="font-size: 88%">Thursday</tspan></text>
</g>
<g transform="translate(10, 89) rotate(-8.0)" class="key keypos-1">
<rect rx="6" ry="6" x="-8" y="-7" width="16" height="15" class="key"/>
</g>
<g transform="translate(32, 73) rotate(-3.0)" class="key keypos-2">
<rect rx="6" ry="6" x="-8" y="-7" width="16" height="15" class="key"/>
</g>
<g transform="translate(54, 67)" class="key keypos-3">
<rect rx="6" ry="6" x="-8" y="-7" width="16" height="15" class="key"/>
</g>
<g transform="translate(74, 72)" class="key keypos-4">
<rect rx="6" ry="6" x="-8" y="-7" width="16" height="15" class="key"/>
</g>
<g transform="translate(94, 82)" class="key keypos-5">
<rect rx="6" ry="6" x="-8" y="-7" width="16" height="15" class="key"/>
</g>
<g transform="translate(150, 82)" class="key keypos-6">
<rect rx="6" ry="6" x="-8" y="-7" width="16" height="15" class="key"/>
</g>
<g transform="translate(170, 72)" class="key keypos-7">
<rect rx="6" ry="6" x="-8" y="-7" width="16" height="15" class="key"/>
</g>
<g transform="translate(190, 67)" class="key keypos-8">
<rect rx="6" ry="6" x="-8" y="-7" width="16" height="15" class="key"/>
</g>
<g transform="translate(212, 73) rotate(3.0)" class="key keypos-9">
<rect rx="6" ry="6" x="-8" y="-7" width="16" height="15" class="key"/>
</g>
<g transform="translate(234, 89) rotate(8.0)" class="key keypos-10">
<rect rx="6" ry="6" x="-8" y="-7" width="16" height="15" class="key"/>
</g>
<g transform="translate(13, 108) rotate(-8.0)" class="key keypos-11">
<rect rx="6" ry="6" x="-8" y="-7" width="16" height="15" class="key"/>
</g>
<g transform="translate(33, 92) rotate(-3.0)" class="key keypos-12">
<rect rx="6" ry="6" x="-8" y="-7" width="16" height="15" class="key"/>
</g>
<g transform="translate(54, 87)" class="key keypos-13">
<rect rx="6" ry="6" x="-8" y="-7" width="16" height="15" class="key"/>
</g>
<g transform="translate(74, 91)" class="key keypos-14">
<rect rx="6" ry="6" x="-8" y="-7" width="16" height="15" class="key"/>
</g>
<g transform="translate(94, 101)" class="key keypos-15">
<rect rx="6" ry="6" x="-8" y="-7" width="16" height="15" class="key"/>
</g>
<g transform="translate(150, 101)" class="key keypos-16">
<rect rx="6" ry="6" x="-8" y="-7" width="16" height="15" class="key"/>
</g>
<g transform="translate(170, 91)" class="key keypos-17">
<rect rx="6" ry="6" x="-8" y="-7" width="16" height="15" class="key"/>
</g>
<g transform="translate(190, 87)" class="key keypos-18">
<rect rx="6" ry="6" x="-8" y="-7" width="16" height="15" class="key"/>
</g>
<g transform="translate(211, 92) rotate(3.0)" class="key keypos-19">
<rect rx="6" ry="6" x="-8" y="-7" width="16" height="15" class="key"/>
</g>
<g transform="translate(231, 108) rotate(8.0)" class="key keypos-20">
<rect rx="6" ry="6" x="-8" y="-7" width="16" height="15" class="key"/>
</g>
<g transform="translate(34, 112) rotate(-3.0)" class="key held keypos-21">
<rect rx="6" ry="6" x="-8" y="-7" width="16" height="15" class="key held"/>
</g>
<g transform="translate(54, 106)" class="key keypos-22">
<rect rx="6" ry="6" x="-8" y="-7" width="16" height="15" class="key"/>
</g>
<g transform="translate(74, 111)" class="key keypos-23">
<rect rx="6" ry="6" x="-8" y="-7" width="16" height="15" class="key"/>
</g>
<g transform="translate(170, 111)" class="key keypos-24">
<rect rx="6" ry="6" x="-8" y="-7" width="16" height="15" class="key"/>
</g>
<g transform="translate(190, 106)" class="key keypos-25">
<rect rx="6" ry="6" x="-8" y="-7" width="16" height="15" class="key"/>
</g>
<g transform="translate(210, 112) rotate(3.0)" class="key keypos-26">
<rect rx="6" ry="6" x="-8" y="-7" width="16" height="15" class="key"/>
</g>
<g transform="translate(79, 135)" class="key keypos-27">
<rect rx="6" ry="6" x="-8" y="-7" width="16" height="15" class="key"/>
</g>
<g transform="translate(99, 140)" class="key keypos-28">
<rect rx="6" ry="6" x="-8" y="-7" width="16" height="15" class="key"/>
</g>
<g transform="translate(144, 140)" class="key held keypos-29">
<rect rx="6" ry="6" x="-8" y="-7" width="16" height="15" class="key held"/>
</g>
<g transform="translate(165, 135)" class="key keypos-30">
<rect rx="6" ry="6" x="-8" y="-7" width="16" height="15" class="key"/>
</g>
</g>
</g>
<g transform="translate(295, 533)" class="layer-combopos-4">
<g transform="translate(0, 18)">
<g transform="translate(30, 28)" class="key  combo-separate keypos-0">
<rect rx="6" ry="6" x="-28" y="-26" width="55" height="52" class="key  combo-separate"/>
<text x="0" y="0" class="key  combo-separate tap">Friday</text>
</g>
<g transform="translate(10, 89) rotate(-8.0)" class="key keypos-1">
<rect rx="6" ry="6" x="-8" y="-7" width="16" height="15" class="key"/>
</g>
<g transform="translate(32, 73) rotate(-3.0)" class="key keypos-2">
<rect rx="6" ry="6" x="-8" y="-7" width="16" height="15" class="key"/>
</g>
<g transform="translate(54, 67)" class="key keypos-3">
<rect rx="6" ry="6" x="-8" y="-7" width="16" height="15" class="key"/>
</g>
<g transform="translate(74, 72)" class="key keypos-4">
<rect rx="6" ry="6" x="-8" y="-7" width="16" height="15" class="key"/>
</g>
<g transform="translate(94, 82)" class="key keypos-5">
<rect rx="6" ry="6" x="-8" y="-7" width="16" height="15" class="key"/>
</g>
<g transform="translate(150, 82)" class="key keypos-6">
<rect rx="6" ry="6" x="-8" y="-7" width="16" height="15" class="key"/>
</g>
<g transform="translate(170, 72)" class="key keypos-7">
<rect rx="6" ry="6" x="-8" y="-7" width="16" height="15" class="key"/>
</g>
<g transform="translate(190, 67)" class="key keypos-8">
<rect rx="6" ry="6" x="-8" y="-7" width="16" height="15" class="key"/>
</g>
<g transform="translate(212, 73) rotate(3.0)" class="key keypos-9">
<rect rx="6" ry="6" x="-8" y="-7" width="16" height="15" class="key"/>
</g>
<g transform="translate(234, 89) rotate(8.0)" class="key keypos-10">
<rect rx="6" ry="6" x="-8" y="-7" width="16" height="15" class="key"/>
</g>
<g transform="translate(13, 108) rotate(-8.0)" class="key keypos-11">
<rect rx="6" ry="6" x="-8" y="-7" width="16" height="15" class="key"/>
</g>
<g transform="translate(33, 92) rotate(-3.0)" class="key keypos-12">
<rect rx="6" ry="6" x="-8" y="-7" width="16" height="15" class="key"/>
</g>
<g transform="translate(54, 87)" class="key keypos-13">
<rect rx="6" ry="6" x="-8" y="-7" width="16" height="15" class="key"/>
</g>
<g transform="translate(74, 91)" class="key keypos-14">
<rect rx="6" ry="6" x="-8" y="-7" width="16" height="15" class="key"/>
</g>
<g transform="translate(94, 101)" class="key keypos-15">
<rect rx="6" ry="6" x="-8" y="-7" width="16" height="15" class="key"/>
</g>
<g transform="translate(150, 101)" class="key keypos-16">
<rect rx="6" ry="6" x="-8" y="-7" width="16" height="15" class="key"/>
</g>
<g transform="translate(170, 91)" class="key keypos-17">
<rect rx="6" ry="6" x="-8" y="-7" width="16" height="15" class="key"/>
</g>
<g transform="translate(190, 87)" class="key keypos-18">
<rect rx="6" ry="6" x="-8" y="-7" width="16" height="15" class="key"/>
</g>
<g transform="translate(211, 92) rotate(3.0)" class="key keypos-19">
<rect rx="6" ry="6" x="-8" y="-7" width="16" height="15" class="key"/>
</g>
<g transform="translate(231, 108) rotate(8.0)" class="key keypos-20">
<rect rx="6" ry="6" x="-8" y="-7" width="16" height="15" class="key"/>
</g>
<g transform="translate(34, 112) rotate(-3.0)" class="key keypos-21">
<rect rx="6" ry="6" x="-8" y="-7" width="16" height="15" class="key"/>
</g>
<g transform="translate(54, 106)" class="key held keypos-22">
<rect rx="6" ry="6" x="-8" y="-7" width="16" height="15" class="key held"/>
</g>
<g transform="translate(74, 111)" class="key keypos-23">
<rect rx="6" ry="6" x="-8" y="-7" width="16" height="15" class="key"/>
</g>
<g transform="translate(170, 111)" class="key keypos-24">
<rect rx="6" ry="6" x="-8" y="-7" width="16" height="15" class="key"/>
</g>
<g transform="translate(190, 106)" class="key keypos-25">
<rect rx="6" ry="6" x="-8" y="-7" width="16" height="15" class="key"/>
</g>
<g transform="translate(210, 112) rotate(3.0)" class="key keypos-26">
<rect rx="6" ry="6" x="-8" y="-7" width="16" height="15" class="key"/>
</g>
<g transform="translate(79, 135)" class="key keypos-27">
<rect rx="6" ry="6" x="-8" y="-7" width="16" height="15" class="key"/>
</g>
<g transform="translate(99, 140)" class="key keypos-28">
<rect rx="6" ry="6" x="-8" y="-7" width="16" height="15" class="key"/>
</g>
<g transform="translate(144, 140)" class="key held keypos-29">
<rect rx="6" ry="6" x="-8" y="-7" width="16" height="15" class="key held"/>
</g>
<g transform="translate(165, 135)" class="key keypos-30">
<rect rx="6" ry="6" x="-8" y="-7" width="16" height="15" class="key"/>
</g>
</g>
</g>
<g transform="translate(560, 533)" class="layer-combopos-5">
<g transform="translate(0, 18)">
<g transform="translate(30, 28)" class="key  combo-separate keypos-0">
<rect rx="6" ry="6" x="-28" y="-26" width="55" height="52" class="key  combo-separate"/>
<text x="0" y="0" class="key  combo-separate tap"><tspan style="font-size: 88%">Saturday</tspan></text>
</g>
<g transform="translate(10, 89) rotate(-8.0)" class="key keypos-1">
<rect rx="6" ry="6" x="-8" y="-7" width="16" height="15" class="key"/>
</g>
<g transform="translate(32, 73) rotate(-3.0)" class="key keypos-2">
<rect rx="6" ry="6" x="-8" y="-7" width="16" height="15" class="key"/>
</g>
<g transform="translate(54, 67)" class="key keypos-3">
<rect rx="6" ry="6" x="-8" y="-7" width="16" height="15" class="key"/>
</g>
<g transform="translate(74, 72)" class="key keypos-4">
<rect rx="6" ry="6" x="-8" y="-7" width="16" height="15" class="key"/>
</g>
<g transform="translate(94, 82)" class="key keypos-5">
<rect rx="6" ry="6" x="-8" y="-7" width="16" height="15" class="key"/>
</g>
<g transform="translate(150, 82)" class="key keypos-6">
<rect rx="6" ry="6" x="-8" y="-7" width="16" height="15" class="key"/>
</g>
<g transform="translate(170, 72)" class="key keypos-7">
<rect rx="6" ry="6" x="-8" y="-7" width="16" height="15" class="key"/>
</g>
<g transform="translate(190, 67)" class="key keypos-8">
<rect rx="6" ry="6" x="-8" y="-7" width="16" height="15" class="key"/>
</g>
<g transform="translate(212, 73) rotate(3.0)" class="key keypos-9">
<rect rx="6" ry="6" x="-8" y="-7" width="16" height="15" class="key"/>
</g>
<g transform="translate(234, 89) rotate(8.0)" class="key keypos-10">
<rect rx="6" ry="6" x="-8" y="-7" width="16" height="15" class="key"/>
</g>
<g transform="translate(13, 108) rotate(-8.0)" class="key keypos-11">
<rect rx="6" ry="6" x="-8" y="-7" width="16" height="15" class="key"/>
</g>
<g transform="translate(33, 92) rotate(-3.0)" class="key keypos-12">
<rect rx="6" ry="6" x="-8" y="-7" width="16" height="15" class="key"/>
</g>
<g transform="translate(54, 87)" class="key keypos-13">
<rect rx="6" ry="6" x="-8" y="-7" width="16" height="15" class="key"/>
</g>
<g transform="translate(74, 91)" class="key keypos-14">
<rect rx="6" ry="6" x="-8" y="-7" width="16" height="15" class="key"/>
</g>
<g transform="translate(94, 101)" class="key keypos-15">
<rect rx="6" ry="6" x="-8" y="-7" width="16" height="15" class="key"/>
</g>
<g transform="translate(150, 101)" class="key keypos-16">
<rect rx="6" ry="6" x="-8" y="-7" width="16" height="15" class="key"/>
</g>
<g transform="translate(170, 91)" class="key keypos-17">
<rect rx="6" ry="6" x="-8" y="-7" width="16" height="15" class="key"/>
</g>
<g transform="translate(190, 87)" class="key keypos-18">
<rect rx="6" ry="6" x="-8" y="-7" width="16" height="15" class="key"/>
</g>
<g transform="translate(211, 92) rotate(3.0)" class="key keypos-19">
<rect rx="6" ry="6" x="-8" y="-7" width="16" height="15" class="key"/>
</g>
<g transform="translate(231, 108) rotate(8.0)" class="key keypos-20">
<rect rx="6" ry="6" x="-8" y="-7" width="16" height="15" class="key"/>
</g>
<g transform="translate(34, 112) rotate(-3.0)" class="key keypos-21">
<rect rx="6" ry="6" x="-8" y="-7" width="16" height="15" class="key"/>
</g>
<g transform="translate(54, 106)" class="key keypos-22">
<rect rx="6" ry="6" x="-8" y="-7" width="16" height="15" class="key"/>
</g>
<g transform="translate(74, 111)" class="key held keypos-23">
<rect rx="6" ry="6" x="-8" y="-7" width="16" height="15" class="key held"/>
</g>
<g transform="translate(170, 111)" class="key keypos-24">
<rect rx="6" ry="6" x="-8" y="-7" width="16" height="15" class="key"/>
</g>
<g transform="translate(190, 106)" class="key keypos-25">
<rect rx="6" ry="6" x="-8" y="-7" width="16" height="15" class="key"/>
</g>
<g transform="translate(210, 112) rotate(3.0)" class="key keypos-26">
<rect rx="6" ry="6" x="-8" y="-7" width="16" height="15" class="key"/>
</g>
<g transform="translate(79, 135)" class="key keypos-27">
<rect rx="6" ry="6" x="-8" y="-7" width="16" height="15" class="key"/>
</g>
<g transform="translate(99, 140)" class="key keypos-28">
<rect rx="6" ry="6" x="-8" y="-7" width="16" height="15" class="key"/>
</g>
<g transform="translate(144, 140)" class="key held keypos-29">
<rect rx="6" ry="6" x="-8" y="-7" width="16" height="15" class="key held"/>
</g>
<g transform="translate(165, 135)" class="key keypos-30">
<rect rx="6" ry="6" x="-8" y="-7" width="16" height="15" class="key"/>
</g>
</g>
</g>
<g transform="translate(30, 700)" class="layer-combopos-6">
<g transform="translate(0, 18)">
<g transform="translate(30, 28)" class="key  combo-separate keypos-0">
<rect rx="6" ry="6" x="-28" y="-26" width="55" height="52" class="key  combo-separate"/>
<text x="0" y="0" class="key  combo-separate tap">Sunday</text>
</g>
<g transform="translate(10, 89) rotate(-8.0)" class="key keypos-1">
<rect rx="6" ry="6" x="-8" y="-7" width="16" height="15" class="key"/>
</g>
<g transform="translate(32, 73) rotate(-3.0)" class="key held keypos-2">
<rect rx="6" ry="6" x="-8" y="-7" width="16" height="15" class="key held"/>
</g>
<g transform="translate(54, 67)" class="key keypos-3">
<rect rx="6" ry="6" x="-8" y="-7" width="16" height="15" class="key"/>
</g>
<g transform="translate(74, 72)" class="key keypos-4">
<rect rx="6" ry="6" x="-8" y="-7" width="16" height="15" class="key"/>
</g>
<g transform="translate(94, 82)" class="key keypos-5">
<rect rx="6" ry="6" x="-8" y="-7" width="16" height="15" class="key"/>
</g>
<g transform="translate(150, 82)" class="key keypos-6">
<rect rx="6" ry="6" x="-8" y="-7" width="16" height="15" class="key"/>
</g>
<g transform="translate(170, 72)" class="key keypos-7">
<rect rx="6" ry="6" x="-8" y="-7" width="16" height="15" class="key"/>
</g>
<g transform="translate(190, 67)" class="key keypos-8">
<rect rx="6" ry="6" x="-8" y="-7" width="16" height="15" class="key"/>
</g>
<g transform="translate(212, 73) rotate(3.0)" class="key keypos-9">
<rect rx="6" ry="6" x="-8" y="-7" width="16" height="15" class="key"/>
</g>
<g transform="translate(234, 89) rotate(8.0)" class="key keypos-10">
<rect rx="6" ry="6" x="-8" y="-7" width="16" height="15" class="key"/>
</g>
<g transform="translate(13, 108) rotate(-8.0)" class="key keypos-11">
<rect rx="6" ry="6" x="-8" y="-7" width="16" height="15" class="key"/>
</g>
<g transform="translate(33, 92) rotate(-3.0)" class="key keypos-12">
<rect rx="6" ry="6" x="-8" y="-7" width="16" height="15" class="key"/>
</g>
<g transform="translate(54, 87)" class="key keypos-13">
<rect rx="6" ry="6" x="-8" y="-7" width="16" height="15" class="key"/>
</g>
<g transform="translate(74, 91)" class="key keypos-14">
<rect rx="6" ry="6" x="-8" y="-7" width="16" height="15" class="key"/>
</g>
<g transform="translate(94, 101)" class="key keypos-15">
<rect rx="6" ry="6" x="-8" y="-7" width="16" height="15" class="key"/>
</g>
<g transform="translate(150, 101)" class="key keypos-16">
<rect rx="6" ry="6" x="-8" y="-7" width="16" height="15" class="key"/>
</g>
<g transform="translate(170, 91)" class="key keypos-17">
<rect rx="6" ry="6" x="-8" y="-7" width="16" height="15" class="key"/>
</g>
<g transform="translate(190, 87)" class="key keypos-18">
<rect rx="6" ry="6" x="-8" y="-7" width="16" height="15" class="key"/>
</g>
<g transform="translate(211, 92) rotate(3.0)" class="key keypos-19">
<rect rx="6" ry="6" x="-8" y="-7" width="16" height="15" class="key"/>
</g>
<g transform="translate(231, 108) rotate(8.0)" class="key keypos-20">
<rect rx="6" ry="6" x="-8" y="-7" width="16" height="15" class="key"/>
</g>
<g transform="translate(34, 112) rotate(-3.0)" class="key keypos-21">
<rect rx="6" ry="6" x="-8" y="-7" width="16" height="15" class="key"/>
</g>
<g transform="translate(54, 106)" class="key keypos-22">
<rect rx="6" ry="6" x="-8" y="-7" width="16" height="15" class="key"/>
</g>
<g transform="translate(74, 111)" class="key keypos-23">
<rect rx="6" ry="6" x="-8" y="-7" width="16" height="15" class="key"/>
</g>
<g transform="translate(170, 111)" class="key keypos-24">
<rect rx="6" ry="6" x="-8" y="-7" width="16" height="15" class="key"/>
</g>
<g transform="translate(190, 106)" class="key keypos-25">
<rect rx="6" ry="6" x="-8" y="-7" width="16" height="15" class="key"/>
</g>
<g transform="translate(210, 112) rotate(3.0)" class="key keypos-26">
<rect rx="6" ry="6" x="-8" y="-7" width="16" height="15" class="key"/>
</g>
<g transform="translate(79, 135)" class="key keypos-27">
<rect rx="6" ry="6" x="-8" y="-7" width="16" height="15" class="key"/>
</g>
<g transform="translate(99, 140)" class="key keypos-28">
<rect rx="6" ry="6" x="-8" y="-7" width="16" height="15" class="key"/>
</g>
<g transform="translate(144, 140)" class="key held keypos-29">
<rect rx="6" ry="6" x="-8" y="-7" width="16" height="15" class="key held"/>
</g>
<g transform="translate(165, 135)" class="key keypos-30">
<rect rx="6" ry="6" x="-8" y="-7" width="16" height="15" class="key"/>
</g>
</g>
</g>
</svg>
