<svg width="799" height="713" viewBox="0 0 799 713" class="keymap" xmlns="http://www.w3.org/2000/svg" xmlns:xlink="http://www.w3.org/1999/xlink">
<style>/* inherit to force styles through use tags */
svg path {
    fill: inherit;
}

/* font and background color specifications */
svg.keymap {
    font-family: SFMono-Regular,Consolas,Liberation Mono,Menlo,monospace;
    font-size: 14px;
    font-kerning: normal;
    text-rendering: optimizeLegibility;
    fill: #24292e;
}

/* default key styling */
rect.key {
    fill: #f6f8fa;
}

rect.key, rect.combo {
    stroke: #c9cccf;
    stroke-width: 1;
}

/* default key side styling, only used is draw_key_sides is set */
rect.side {
    filter: brightness(90%);
}

/* color accent for combo boxes */
rect.combo, rect.combo-separate {
    fill: #cdf;
}

/* color accent for held keys */
rect.held, rect.combo.held {
    fill: #fdd;
}

/* color accent for ghost (optional) keys */
rect.ghost, rect.combo.ghost {
    stroke-dasharray: 4, 4;
    stroke-width: 2;
}

text {
    text-anchor: middle;
    dominant-baseline: middle;
}

/* styling for layer labels */
text.label {
    font-weight: bold;
    text-anchor: start;
    stroke: white;
    stroke-width: 4;
    paint-order: stroke;
}

/* styling for optional footer */
text.footer {
    text-anchor: end;
    dominant-baseline: auto;
    stroke: white;
    stroke-width: 4;
    paint-order: stroke;
}

/* styling for combo tap, and key hold/shifted label text */
text.combo, text.hold, text.shifted {
    font-size: 11px;
}

text.hold {
    text-anchor: middle;
    dominant-baseline: auto;
}

text.shifted {
    text-anchor: middle;
    dominant-baseline: hanging;
}

text.layer-activator {
    text-decoration: underline;
}

/* styling for hold/shifted label text in combo box */
text.combo.hold, text.combo.shifted {
    font-size: 8px;
}

/* lighter symbol for transparent keys */
text.trans {
    fill: #7b7e81;
}

/* styling for combo dendrons */
path.combo {
    stroke-width: 1;
    stroke: gray;
    fill: none;
}

/* Start Tabler Icons Cleanup */
/* cannot use height/width with glyphs */
.icon-tabler > path {
    fill: inherit;
    stroke: inherit;
    stroke-width: 2;
}
/* hide tabler's default box */
.icon-tabler > path[stroke="none"][fill="none"] {
    visibility: hidden;
}
/* End Tabler Icons Cleanup */
</style>
<g transform="translate(30, 0)" class="layer-main">
<text x="0" y="28" class="label" id="main">main:</text>
<g transform="translate(0, 56)">
<g transform="translate(33, 93) rotate(-8.0)" class="key keypos-0">
<rect rx="6" ry="6" x="-28" y="-26" width="55" height="52" class="key"/>
<text x="0" y="0" class="key tap">W</text>
</g>
<g transform="translate(98, 46) rotate(-3.0)" class="key keypos-1">
<rect rx="6" ry="6" x="-28" y="-26" width="55" height="52" class="key"/>
<text x="0" y="0" class="key tap">C</text>
</g>
<g transform="translate(164, 28)" class="key keypos-2">
<rect rx="6" ry="6" x="-28" y="-26" width="55" height="52" class="key"/>
<text x="0" y="0" class="key tap">G</text>
</g>
<g transform="translate(225, 42)" class="key keypos-3">
<rect rx="6" ry="6" x="-28" y="-26" width="55" height="52" class="key"/>
<text x="0" y="0" class="key tap">D</text>
</g>
<g transform="translate(286, 71)" class="key keypos-4">
<rect rx="6" ry="6" x="-28" y="-26" width="55" height="52" class="key"/>
<text x="0" y="0" class="key tap">V</text>
</g>
<g transform="translate(452, 71)" class="key keypos-5">
<rect rx="6" ry="6" x="-28" y="-26" width="55" height="52" class="key"/>
<text x="0" y="0" class="key tap">X</text>
</g>
<g transform="translate(513, 42)" class="key keypos-6">
<rect rx="6" ry="6" x="-28" y="-26" width="55" height="52" class="key"/>
<text x="0" y="0" class="key tap">L</text>
</g>
<g transform="translate(574, 28)" class="key keypos-7">
<rect rx="6" ry="6" x="-28" y="-26" width="55" height="52" class="key"/>
<text x="0" y="0" class="key tap">U</text>
</g>
<g transform="translate(640, 46) rotate(3.0)" class="key keypos-8">
<rect rx="6" ry="6" x="-28" y="-26" width="55" height="52" class="key"/>
<text x="0" y="0" class="key tap">O</text>
</g>
<g transform="translate(705, 93) rotate(8.0)" class="key keypos-9">
<rect rx="6" ry="6" x="-28" y="-26" width="55" height="52" class="key"/>
<text x="0" y="0" class="key tap">Y</text>
</g>
<g transform="translate(41, 150) rotate(-8.0)" class="key keypos-10">
<rect rx="6" ry="6" x="-28" y="-26" width="55" height="52" class="key"/>
<text x="0" y="0" class="key tap">R</text>
<text x="0" y="24" class="key hold">LGUI</text>
</g>
<g transform="translate(101, 103) rotate(-3.0)" class="key keypos-11">
<rect rx="6" ry="6" x="-28" y="-26" width="55" height="52" class="key"/>
<text x="0" y="0" class="key tap">S</text>
<text x="0" y="24" class="key hold">LALT</text>
</g>
<g transform="translate(164, 86)" class="key keypos-12">
<rect rx="6" ry="6" x="-28" y="-26" width="55" height="52" class="key"/>
<text x="0" y="0" class="key tap">T</text>
<text x="0" y="24" class="key hold">LSHFT</text>
</g>
<g transform="translate(225, 100)" class="key keypos-13">
<rect rx="6" ry="6" x="-28" y="-26" width="55" height="52" class="key"/>
<text x="0" y="0" class="key tap">H</text>
<text x="0" y="24" class="key hold">LCTL</text>
</g>
<g transform="translate(286, 129)" class="key keypos-14">
<rect rx="6" ry="6" x="-28" y="-26" width="55" height="52" class="key"/>
<text x="0" y="0" class="key tap">K</text>
</g>
<g transform="translate(452, 129)" class="key keypos-15">
<rect rx="6" ry="6" x="-28" y="-26" width="55" height="52" class="key"/>
<text x="0" y="0" class="key tap">J</text>
</g>
<g transform="translate(513, 100)" class="key keypos-16">
<rect rx="6" ry="6" x="-28" y="-26" width="55" height="52" class="key"/>
<text x="0" y="0" class="key tap">N</text>
<text x="0" y="24" class="key hold">LCTL</text>
</g>
<g transform="translate(574, 86)" class="key keypos-17">
<rect rx="6" ry="6" x="-28" y="-26" width="55" height="52" class="key"/>
<text x="0" y="0" class="key tap">E</text>
<text x="0" y="24" class="key hold">LSHFT</text>
</g>
<g transform="translate(637, 103) rotate(3.0)" class="key keypos-18">
<rect rx="6" ry="6" x="-28" y="-26" width="55" height="52" class="key"/>
<text x="0" y="0" class="key tap">A</text>
<text x="0" y="24" class="key hold">LALT</text>
</g>
<g transform="translate(697, 150) rotate(8.0)" class="key keypos-19">
<rect rx="6" ry="6" x="-28" y="-26" width="55" height="52" class="key"/>
<text x="0" y="0" class="key tap">I</text>
<text x="0" y="24" class="key hold">LGUI</text>
</g>
<g transform="translate(104, 161) rotate(-3.0)" class="key keypos-20">
<rect rx="6" ry="6" x="-28" y="-26" width="55" height="52" class="key"/>
<text x="0" y="0" class="key tap">F</text>
</g>
<g transform="translate(164, 143)" class="key keypos-21">
<rect rx="6" ry="6" x="-28" y="-26" width="55" height="52" class="key"/>
<text x="0" y="0" class="key tap">P</text>
</g>
<g transform="translate(225, 158)" class="key keypos-22">
<rect rx="6" ry="6" x="-28" y="-26" width="55" height="52" class="key"/>
<text x="0" y="0" class="key tap">B</text>
</g>
<g transform="translate(513, 158)" class="key keypos-23">
<rect rx="6" ry="6" x="-28" y="-26" width="55" height="52" class="key"/>
<text x="0" y="0" class="key tap">M</text>
</g>
<g transform="translate(574, 143)" class="key keypos-24">
<rect rx="6" ry="6" x="-28" y="-26" width="55" height="52" class="key"/>
<text x="0" y="0" class="key tap">,</text>
</g>
<g transform="translate(634, 161) rotate(3.0)" class="key keypos-25">
<rect rx="6" ry="6" x="-28" y="-26" width="55" height="52" class="key"/>
<text x="0" y="0" class="key tap">.</text>
</g>
<g transform="translate(241, 230)" class="key keypos-26">
<rect rx="6" ry="6" x="-28" y="-26" width="55" height="52" class="key"/>
<text x="0" y="0" class="key tap"><tspan style="font-size: 70%">&amp;macro_nav</tspan></text>
</g>
<g transform="translate(302, 245)" class="key keypos-27">
<rect rx="6" ry="6" x="-28" y="-26" width="55" height="52" class="key"/>
<text x="0" y="0" class="key tap">SPACE</text>
</g>
<g transform="translate(437, 245)" class="key keypos-28">
<rect rx="6" ry="6" x="-28" y="-26" width="55" height="52" class="key"/>
<text x="0" y="0" class="key tap">LSHFT</text>
</g>
<g transform="translate(498, 230)" class="key keypos-29">
<rect rx="6" ry="6" x="-28" y="-26" width="55" height="52" class="key"/>
</g>
<g class="combo combopos-0">
<rect rx="6" ry="6" x="120" y="139" width="28" height="26" class="combo"/>
<text x="134" y="152" class="combo tap">Z</text>
</g>
<g class="combo combopos-1">
<rect rx="6" ry="6" x="181" y="138" width="28" height="26" class="combo"/>
<text x="195" y="150" class="combo tap">Q</text>
</g>
<g class="combo combopos-2">
<rect rx="6" ry="6" x="272" y="87" width="28" height="26" class="combo"/>
<text x="286" y="100" class="combo tap">DEL</text>
</g>
<g class="combo combopos-3">
<rect rx="6" ry="6" x="438" y="87" width="28" height="26" class="combo"/>
<text x="452" y="100" class="combo tap">BSPC</text>
</g>
<g class="combo combopos-4">
<path d="M576,39 l-43,3" class="combo"/>
<path d="M576,39 l45,5" class="combo"/>
<rect rx="6" ry="6" x="562" y="26" width="28" height="26" class="combo"/>
<text x="576" y="39" class="combo tap">CAPS</text>
</g>
<g class="combo combopos-5">
<path d="M369,245 l-48,0" class="combo"/>
<path d="M369,245 l48,0" class="combo"/>
<rect rx="6" ry="6" x="355" y="232" width="28" height="26" class="combo"/>
<text x="369" y="245" class="combo tap"><tspan style="font-size: 70%">&amp;caps_word</tspan></text>
</g>
<g class="combo combopos-6">
<rect rx="6" ry="6" x="181" y="109" width="28" height="26" class="combo"/>
<text x="195" y="122" class="combo tap">ESC</text>
</g>
<g class="combo combopos-7">
<rect rx="6" ry="6" x="530" y="109" width="28" height="26" class="combo"/>
<text x="544" y="122" class="combo tap">RET</text>
</g>
<g class="combo combopos-8">
<path d="M163,39 l-45,5" class="combo"/>
<path d="M163,39 l43,3" class="combo"/>
<rect rx="6" ry="6" x="149" y="26" width="28" height="26" class="combo"/>
<text x="163" y="39" class="combo tap">
<tspan x="163" dy="-0.6em" style="font-size: 88%">Sft+Gui+</tspan><tspan x="163" dy="1.2em" style="font-size: 88%">S</tspan>
</text>
</g>
<g class="combo combopos-9">
<rect rx="6" ry="6" x="181" y="51" width="28" height="26" class="combo"/>
<text x="195" y="64" class="combo tap"><tspan style="font-size: 64%">&amp;macro_gra…</tspan></text>
</g>
<g class="combo combopos-10">
<rect rx="6" ry="6" x="119" y="81" width="28" height="26" class="combo"/>
<text x="133" y="94" class="combo tap">
<tspan x="133" dy="-0.6em">Sft+</tspan><tspan x="133" dy="1.2em">TAB</tspan>
</text>
</g>
<g class="combo combopos-11">
<rect rx="6" ry="6" x="181" y="80" width="28" height="26" class="combo"/>
<text x="195" y="93" class="combo tap">TAB</text>
</g>
<g class="combo combopos-12">
<rect rx="6" ry="6" x="530" y="80" width="28" height="26" class="combo"/>
<text x="544" y="93" class="combo tap">
<tspan x="544" dy="-0.6em">Ctl+</tspan><tspan x="544" dy="1.2em">BSPC</tspan>
</text>
</g>
<g class="combo combopos-13">
<rect rx="6" ry="6" x="592" y="81" width="28" height="26" class="combo"/>
<text x="606" y="94" class="combo tap">
<tspan x="606" dy="-0.6em">Ctl+</tspan><tspan x="606" dy="1.2em">DEL</tspan>
</text>
</g>
<g class="combo combopos-14">
<rect rx="6" ry="6" x="181" y="22" width="28" height="26" class="combo"/>
<text x="195" y="35" class="combo tap">_</text>
</g>
<g class="combo combopos-15">
<rect rx="6" ry="6" x="530" y="22" width="28" height="26" class="combo"/>
<text x="544" y="35" class="combo tap">-</text>
</g>
<g class="combo combopos-16">
<rect rx="6" ry="6" x="530" y="51" width="28" height="26" class="combo"/>
<text x="544" y="64" class="combo tap">&amp;</text>
</g>
<g class="combo combopos-17">
<path d="M574,159 l-41,-1" class="combo"/>
<path d="M574,159 l41,1" class="combo"/>
<rect rx="6" ry="6" x="560" y="146" width="28" height="26" class="combo"/>
<text x="574" y="159" class="combo tap">/</text>
</g>
<g class="combo combopos-18">
<rect rx="6" ry="6" x="530" y="138" width="28" height="26" class="combo"/>
<text x="544" y="150" class="combo tap">!</text>
</g>
<g class="combo combopos-19">
<rect rx="6" ry="6" x="590" y="139" width="28" height="26" class="combo"/>
<text x="604" y="152" class="combo tap">?</text>
</g>
<g class="combo combopos-20">
<rect rx="6" ry="6" x="117" y="24" width="28" height="26" class="combo"/>
<text x="131" y="37" class="combo tap">&quot;</text>
</g>
<g class="combo combopos-21">
<rect rx="6" ry="6" x="593" y="24" width="28" height="26" class="combo"/>
<text x="607" y="37" class="combo tap">@</text>
</g>
<g class="combo combopos-22">
<path d="M165,159 l-41,1" class="combo"/>
<path d="M165,159 l41,-1" class="combo"/>
<rect rx="6" ry="6" x="151" y="146" width="28" height="26" class="combo"/>
<text x="165" y="159" class="combo tap">NUBS</text>
</g>
<g class="combo combopos-23">
<rect rx="6" ry="6" x="23" y="109" width="28" height="26" class="combo"/>
<text x="37" y="122" class="combo tap">&lt;</text>
</g>
<g class="combo combopos-24">
<rect rx="6" ry="6" x="86" y="62" width="28" height="26" class="combo"/>
<text x="100" y="75" class="combo tap">[</text>
</g>
<g class="combo combopos-25">
<rect rx="6" ry="6" x="150" y="44" width="28" height="26" class="combo"/>
<text x="164" y="57" class="combo tap">(</text>
</g>
<g class="combo combopos-26">
<rect rx="6" ry="6" x="211" y="58" width="28" height="26" class="combo"/>
<text x="225" y="71" class="combo tap">{</text>
</g>
<g class="combo combopos-27">
<rect rx="6" ry="6" x="687" y="109" width="28" height="26" class="combo"/>
<text x="701" y="122" class="combo tap">&gt;</text>
</g>
<g class="combo combopos-28">
<rect rx="6" ry="6" x="499" y="58" width="28" height="26" class="combo"/>
<text x="513" y="71" class="combo tap">}</text>
</g>
<g class="combo combopos-29">
<rect rx="6" ry="6" x="560" y="44" width="28" height="26" class="combo"/>
<text x="574" y="57" class="combo tap">)</text>
</g>
<g class="combo combopos-30">
<rect rx="6" ry="6" x="625" y="62" width="28" height="26" class="combo"/>
<text x="639" y="75" class="combo tap">]</text>
</g>
</g>
</g>
<g transform="translate(30, 329)" class="layer-nav">
<text x="0" y="28" class="label" id="nav">nav:</text>
<g transform="translate(0, 56)">
<g transform="translate(33, 93) rotate(-8.0)" class="key keypos-0">
<rect rx="6" ry="6" x="-28" y="-26" width="55" height="52" class="key"/>
<text x="0" y="0" class="key tap">
<tspan x="0" dy="-0.6em" style="font-size: 88%">Ctl+Gui+</tspan><tspan x="0" dy="1.2em" style="font-size: 88%">LEFT</tspan>
</text>
</g>
<g transform="translate(98, 46) rotate(-3.0)" class="key keypos-1">
<rect rx="6" ry="6" x="-28" y="-26" width="55" height="52" class="key"/>
<text x="0" y="0" class="key tap">
<tspan x="0" dy="-1.2em">Ctl+</tspan><tspan x="0" dy="1.2em">PG</tspan><tspan x="0" dy="1.2em">UP</tspan>
</text>
</g>
<g transform="translate(164, 28)" class="key keypos-2">
<rect rx="6" ry="6" x="-28" y="-26" width="55" height="52" class="key"/>
<text x="0" y="0" class="key tap">TAB</text>
</g>
<g transform="translate(225, 42)" class="key keypos-3">
<rect rx="6" ry="6" x="-28" y="-26" width="55" height="52" class="key"/>
<text x="0" y="0" class="key tap">
<tspan x="0" dy="-1.2em">Ctl+</tspan><tspan x="0" dy="1.2em">PG</tspan><tspan x="0" dy="1.2em">DN</tspan>
</text>
</g>
<g transform="translate(286, 71)" class="key keypos-4">
<rect rx="6" ry="6" x="-28" y="-26" width="55" height="52" class="key"/>
<text x="0" y="0" class="key tap">
<tspan x="0" dy="-0.6em" style="font-size: 88%">Ctl+Gui+</tspan><tspan x="0" dy="1.2em" style="font-size: 88%">RIGHT</tspan>
</text>
</g>
<g transform="translate(452, 71)" class="key keypos-5">
<rect rx="6" ry="6" x="-28" y="-26" width="55" height="52" class="key"/>
<text x="0" y="0" class="key tap">
<tspan x="0" dy="-0.6em">PG</tspan><tspan x="0" dy="1.2em">UP</tspan>
</text>
</g>
<g transform="translate(513, 42)" class="key keypos-6">
<rect rx="6" ry="6" x="-28" y="-26" width="55" height="52" class="key"/>
<text x="0" y="0" class="key tap">HOME</text>
</g>
<g transform="translate(574, 28)" class="key keypos-7">
<rect rx="6" ry="6" x="-28" y="-26" width="55" height="52" class="key"/>
<text x="0" y="0" class="key tap">UP</text>
</g>
<g transform="translate(640, 46) rotate(3.0)" class="key keypos-8">
<rect rx="6" ry="6" x="-28" y="-26" width="55" height="52" class="key"/>
<text x="0" y="0" class="key tap">END</text>
</g>
<g transform="translate(705, 93) rotate(8.0)" class="key keypos-9">
<rect rx="6" ry="6" x="-28" y="-26" width="55" height="52" class="key"/>
<text x="0" y="0" class="key tap">DEL</text>
</g>
<g transform="translate(41, 150) rotate(-8.0)" class="key keypos-10">
<rect rx="6" ry="6" x="-28" y="-26" width="55" height="52" class="key"/>
<text x="0" y="0" class="key tap">LGUI</text>
<text x="0" y="24" class="key hold">LGUI</text>
</g>
<g transform="translate(101, 103) rotate(-3.0)" class="key keypos-11">
<rect rx="6" ry="6" x="-28" y="-26" width="55" height="52" class="key"/>
<text x="0" y="0" class="key tap">LALT</text>
<text x="0" y="24" class="key hold">LALT</text>
</g>
<g transform="translate(164, 86)" class="key keypos-12">
<rect rx="6" ry="6" x="-28" y="-26" width="55" height="52" class="key"/>
<text x="0" y="0" class="key tap">LSHIFT</text>
<text x="0" y="24" class="key hold">LSHIFT</text>
</g>
<g transform="translate(225, 100)" class="key keypos-13">
<rect rx="6" ry="6" x="-28" y="-26" width="55" height="52" class="key"/>
<text x="0" y="0" class="key tap">LCTRL</text>
<text x="0" y="24" class="key hold">LCTRL</text>
</g>
<g transform="translate(286, 129)" class="key keypos-14">
<rect rx="6" ry="6" x="-28" y="-26" width="55" height="52" class="key"/>
<text x="0" y="0" class="key tap">
<tspan x="0" dy="-0.6em" style="font-size: 88%">Ctl+Sft+</tspan><tspan x="0" dy="1.2em" style="font-size: 88%">V</tspan>
</text>
</g>
<g transform="translate(452, 129)" class="key keypos-15">
<rect rx="6" ry="6" x="-28" y="-26" width="55" height="52" class="key"/>
<text x="0" y="0" class="key tap">
<tspan x="0" dy="-0.6em">PG</tspan><tspan x="0" dy="1.2em">DN</tspan>
</text>
</g>
<g transform="translate(513, 100)" class="key keypos-16">
<rect rx="6" ry="6" x="-28" y="-26" width="55" height="52" class="key"/>
<text x="0" y="0" class="key tap">LEFT</text>
</g>
<g transform="translate(574, 86)" class="key keypos-17">
<rect rx="6" ry="6" x="-28" y="-26" width="55" height="52" class="key"/>
<text x="0" y="0" class="key tap">DOWN</text>
</g>
<g transform="translate(637, 103) rotate(3.0)" class="key keypos-18">
<rect rx="6" ry="6" x="-28" y="-26" width="55" height="52" class="key"/>
<text x="0" y="0" class="key tap">RIGHT</text>
</g>
<g transform="translate(697, 150) rotate(8.0)" class="key keypos-19">
<rect rx="6" ry="6" x="-28" y="-26" width="55" height="52" class="key"/>
<text x="0" y="0" class="key tap">RET</text>
</g>
<g transform="translate(104, 161) rotate(-3.0)" class="key keypos-20">
<rect rx="6" ry="6" x="-28" y="-26" width="55" height="52" class="key"/>
<text x="0" y="0" class="key tap">
<tspan x="0" dy="-0.6em">Ctl+</tspan><tspan x="0" dy="1.2em">X</tspan>
</text>
</g>
<g transform="translate(164, 143)" class="key keypos-21">
<rect rx="6" ry="6" x="-28" y="-26" width="55" height="52" class="key"/>
<text x="0" y="0" class="key tap">
<tspan x="0" dy="-0.6em">Ctl+</tspan><tspan x="0" dy="1.2em">C</tspan>
</text>
</g>
<g transform="translate(225, 158)" class="key keypos-22">
<rect rx="6" ry="6" x="-28" y="-26" width="55" height="52" class="key"/>
<text x="0" y="0" class="key tap">
<tspan x="0" dy="-0.6em">Ctl+</tspan><tspan x="0" dy="1.2em">V</tspan>
</text>
</g>
<g transform="translate(513, 158)" class="key keypos-23">
<rect rx="6" ry="6" x="-28" y="-26" width="55" height="52" class="key"/>
<text x="0" y="0" class="key tap">BSPC</text>
</g>
<g transform="translate(574, 143)" class="key keypos-24">
<rect rx="6" ry="6" x="-28" y="-26" width="55" height="52" class="key"/>
</g>
<g transform="translate(634, 161) rotate(3.0)" class="key keypos-25">
<rect rx="6" ry="6" x="-28" y="-26" width="55" height="52" class="key"/>
</g>
<g transform="translate(241, 230)" class="key trans keypos-26">
<rect rx="6" ry="6" x="-28" y="-26" width="55" height="52" class="key trans"/>
<text x="0" y="0" class="key trans tap">▽</text>
</g>
<g transform="translate(302, 245)" class="key keypos-27">
<rect rx="6" ry="6" x="-28" y="-26" width="55" height="52" class="key"/>
</g>
<g transform="translate(437, 245)" class="key keypos-28">
<rect rx="6" ry="6" x="-28" y="-26" width="55" height="52" class="key"/>
</g>
<g transform="translate(498, 230)" class="key keypos-29">
<rect rx="6" ry="6" x="-28" y="-26" width="55" height="52" class="key"/>
</g>
</g>
</g>
</svg>
